<svg width="100" height="100" viewBox="0 0 100 100" fill="none" xmlns="http://www.w3.org/2000/svg">
<g clip-path="url(#clip0_683_158)">
<path d="M93.3333 56.6668C93.3953 60.1409 92.0748 63.4973 89.6621 65.9978C87.2495 68.4983 83.9424 69.938 80.4683 70.0002H70.7717C70.3464 70.0062 69.9265 70.0966 69.5364 70.2661C69.1463 70.4356 68.7938 70.6809 68.4992 70.9877C68.2047 71.2946 67.9739 71.6568 67.8204 72.0535C67.6669 72.4501 67.5937 72.8733 67.605 73.2985V73.3335C67.6672 75.0619 67.3805 76.7851 66.762 78.4003C66.1435 80.0155 65.2059 81.4894 64.0051 82.7342C62.8043 83.979 61.3651 84.969 59.7732 85.6452C58.1813 86.3214 56.4695 86.67 54.74 86.67C53.0105 86.67 51.2986 86.3214 49.7068 85.6452C48.1149 84.969 46.6756 83.979 45.4749 82.7342C44.2741 81.4894 43.3365 80.0155 42.718 78.4003C42.0995 76.7851 41.8128 75.0619 41.875 73.3335V73.2985C41.8863 72.8728 41.8128 72.449 41.6589 72.0519C41.505 71.6548 41.2737 71.2923 40.9784 70.9854C40.6831 70.6785 40.3298 70.4333 39.9389 70.2642C39.5481 70.0951 39.1275 70.0053 38.7017 70.0002H17.7483C13.4058 69.9222 9.27198 68.1225 6.25617 64.997C3.24036 61.8715 1.58949 57.6761 1.66665 53.3335C1.63439 50.0535 2.57206 46.8371 4.36191 44.0883C6.15175 41.3395 8.71394 39.1808 11.7267 37.8835C11.4496 36.3827 11.3118 34.8596 11.315 33.3335C11.2004 26.8198 13.6771 20.5272 18.2008 15.8391C22.7245 11.1511 28.9247 8.45135 35.4383 8.3335C41.0779 8.40959 46.5164 10.4398 50.8262 14.078C55.136 17.7161 58.0502 22.7367 59.0717 28.2835C61.2261 27.219 63.597 26.6658 66 26.6668C70.3428 26.7444 74.4771 28.5438 77.4932 31.6694C80.5094 34.795 82.1605 38.9906 82.0833 43.3335V43.4335C85.2432 43.9027 88.1253 45.5028 90.1944 47.9367C92.2635 50.3705 93.3789 53.4727 93.3333 56.6668Z" fill="#F3FBF4"/>
<path d="M62.6023 73.2983V73.3333C62.642 76.3725 61.6327 79.3325 59.7447 81.7145C57.8567 84.0964 55.2053 85.7548 52.2373 86.41C53.0599 86.5793 53.8975 86.6653 54.7373 86.6667C58.2114 86.6045 61.5185 85.1648 63.9311 82.6643C66.3437 80.1639 67.6643 76.8074 67.6023 73.3333V73.2983C67.591 72.8729 67.6644 72.4494 67.8181 72.0525C67.9718 71.6557 68.2028 71.2933 68.4977 70.9864C68.7926 70.6795 69.1456 70.4343 69.536 70.265C69.9265 70.0957 70.3467 70.0056 70.7723 70H65.7723C65.3467 70.0056 64.9265 70.0957 64.536 70.265C64.1456 70.4343 63.7926 70.6795 63.4977 70.9864C63.2028 71.2933 62.9718 71.6557 62.8181 72.0525C62.6644 72.4494 62.591 72.8729 62.6023 73.2983Z" fill="#D6F3DA"/>
<path d="M54.0721 28.2835C55.5386 27.5669 57.1081 27.0838 58.7237 26.8518C57.4453 21.6201 54.4641 16.9618 50.2489 13.6096C46.0338 10.2573 40.8239 8.40133 35.4387 8.3335C34.5907 8.33465 33.7434 8.38139 32.9004 8.4735C38.0796 9.08876 42.9269 11.3425 46.7354 14.906C50.5439 18.4695 53.1144 23.1565 54.0721 28.2835Z" fill="#D6F3DA"/>
<path d="M82.077 43.4337V43.3337C82.1542 38.9919 80.504 34.7973 77.4893 31.6719C74.4745 28.5465 70.342 26.7463 66.0003 26.667C65.1668 26.6745 64.3352 26.7492 63.5137 26.8903C67.3558 27.5805 70.8281 29.6123 73.3121 32.6236C75.796 35.635 77.1302 39.4304 77.077 43.3337V43.4337C80.3556 43.9572 83.3222 45.6818 85.3995 48.2718C87.4768 50.8618 88.5162 54.132 88.3156 57.4461C88.115 60.7601 86.6886 63.881 84.314 66.2015C81.9394 68.522 78.7865 69.8761 75.4687 70.0003H80.4687C83.7865 69.8761 86.9394 68.522 89.314 66.2015C91.6886 63.881 93.115 60.7601 93.3156 57.4461C93.5162 54.132 92.4768 50.8618 90.3995 48.2718C88.3222 45.6818 85.3556 43.9572 82.077 43.4337Z" fill="#D6F3DA"/>
<path d="M95.0003 80.0002C96.8413 80.0002 98.3337 78.5078 98.3337 76.6668C98.3337 74.8259 96.8413 73.3335 95.0003 73.3335C93.1594 73.3335 91.667 74.8259 91.667 76.6668C91.667 78.5078 93.1594 80.0002 95.0003 80.0002Z" fill="#F3FBF4"/>
<path d="M79.9997 91.6668C83.6816 91.6668 86.6663 88.6821 86.6663 85.0002C86.6663 81.3183 83.6816 78.3335 79.9997 78.3335C76.3178 78.3335 73.333 81.3183 73.333 85.0002C73.333 88.6821 76.3178 91.6668 79.9997 91.6668Z" fill="#F3FBF4"/>
<path d="M80 78.3335C79.1422 78.3371 78.2932 78.5069 77.5 78.8335C78.731 79.3292 79.7856 80.1818 80.5283 81.2816C81.271 82.3813 81.6679 83.6781 81.6679 85.0052C81.6679 86.3322 81.271 87.629 80.5283 88.7288C79.7856 89.8285 78.731 90.6811 77.5 91.1768C78.4118 91.5472 79.3944 91.711 80.3771 91.6566C81.3597 91.6023 82.3182 91.331 83.1836 90.8623C84.049 90.3935 84.7999 89.739 85.3823 88.9457C85.9648 88.1524 86.3644 87.24 86.5525 86.2739C86.7405 85.3079 86.7123 84.3122 86.4699 83.3583C86.2276 82.4045 85.777 81.5161 85.1506 80.757C84.5242 79.9979 83.7375 79.3869 82.847 78.9679C81.9564 78.5489 80.9842 78.3322 80 78.3335Z" fill="#D6F3DA"/>
<path d="M68.528 26.8937C67.6928 26.7492 66.8472 26.6734 65.9997 26.667C65.528 26.6695 65.0567 26.6973 64.588 26.7503C64.2997 26.7753 64.0197 26.8253 63.7363 26.8653C63.8613 27.3337 63.9813 27.8037 64.0697 28.2837C65.4772 27.5983 66.9803 27.1296 68.528 26.8937Z" fill="#F3FBF4"/>
<path d="M17.7483 70.0002H22.7483C18.4058 69.9222 14.272 68.1225 11.2562 64.997C8.24036 61.8715 6.58949 57.6761 6.66665 53.3335C6.63439 50.0535 7.57206 46.8371 9.36191 44.0883C11.1517 41.3395 13.7139 39.1808 16.7267 37.8835C16.4496 36.3827 16.3118 34.8596 16.315 33.3335C16.2245 27.2616 18.3751 21.3694 22.3556 16.7834C26.3362 12.1974 31.8674 9.2395 37.8917 8.47516C37.78 8.4585 37.6666 8.44016 37.5583 8.43016C36.8583 8.36572 36.1516 8.3335 35.4383 8.3335C28.9247 8.45135 22.7245 11.1511 18.2008 15.8391C13.6771 20.5272 11.2004 26.8198 11.315 33.3335C11.3118 34.8596 11.4496 36.3827 11.7267 37.8835C8.71394 39.1808 6.15175 41.3395 4.36191 44.0883C2.57206 46.8371 1.63439 50.0535 1.66665 53.3335C1.58949 57.6761 3.24036 61.8715 6.25617 64.997C9.27198 68.1225 13.4058 69.9222 17.7483 70.0002Z" fill="#F3FBF4"/>
<path d="M13.2618 19.7681L16.1534 21.4247C14.0835 25.0528 12.9906 29.156 12.9818 33.3331H9.64844C9.65663 28.5746 10.9018 23.9001 13.2618 19.7681Z" fill="#F3FBF4"/>
<path d="M12.2131 28.3934C11.9942 28.3945 11.7773 28.3525 11.5747 28.2697C11.372 28.187 11.1877 28.0651 11.0322 27.9111C10.718 27.6001 10.5403 27.1771 10.5381 26.7351C10.5359 26.293 10.7094 25.8682 11.0204 25.5541C11.3314 25.24 11.7544 25.0623 12.1964 25.0601H12.2131C12.6551 25.0601 13.0791 25.2357 13.3916 25.5482C13.7042 25.8608 13.8798 26.2847 13.8798 26.7267C13.8798 27.1688 13.7042 27.5927 13.3916 27.9052C13.0791 28.2178 12.6551 28.3934 12.2131 28.3934Z" fill="#37C44D"/>
<path d="M17.7484 71.6665H38.7034C38.8934 71.6646 39.0819 71.7011 39.2574 71.7738C39.433 71.8466 39.5921 71.9541 39.725 72.0899C39.8843 72.2543 40.0088 72.4492 40.0913 72.6628C40.1737 72.8764 40.2124 73.1043 40.205 73.3332C40.1451 75.2809 40.4773 77.2209 41.1818 79.0378C41.8864 80.8546 42.949 82.5113 44.3065 83.9094C45.664 85.3074 47.2887 86.4184 49.084 87.1762C50.8793 87.934 52.8086 88.3231 54.7573 88.3206C56.706 88.318 58.6343 87.9237 60.4276 87.1612C62.2209 86.3987 63.8427 85.2835 65.1965 83.8818C66.5503 82.4802 67.6085 80.8207 68.3083 79.002C69.0081 77.1833 69.3351 75.2425 69.27 73.2948C69.266 73.0723 69.3062 72.8512 69.3883 72.6443C69.4704 72.4375 69.5928 72.249 69.7484 72.0899C69.882 71.9544 70.0414 71.8472 70.2171 71.7744C70.3929 71.7017 70.5815 71.665 70.7717 71.6665H80.4667C84.0844 71.5395 87.5352 70.1136 90.1873 67.6499C92.8394 65.1861 94.5152 61.8495 94.9079 58.251C95.3006 54.6525 94.3838 51.0329 92.3255 48.0551C90.2673 45.0774 87.2052 42.9408 83.7 42.0365C83.4515 37.4847 81.4872 33.1962 78.2028 30.0349C74.9184 26.8736 70.558 25.0744 66 24.9998C64.0389 24.9964 62.0918 25.3295 60.2434 25.9848C58.7801 20.5009 55.5647 15.6454 51.0867 12.158C46.6087 8.67049 41.1137 6.7421 35.4384 6.6665C30.9082 6.69113 26.4668 7.92533 22.5734 10.2415C18.6876 12.5454 15.4763 15.8309 13.2617 19.7682C13.1416 19.9596 13.0634 20.1742 13.0321 20.398C13.0008 20.6218 13.0172 20.8497 13.0802 21.0667C13.1431 21.2837 13.2512 21.485 13.3974 21.6573C13.5436 21.8296 13.7245 21.969 13.9284 22.0665C14.314 22.2507 14.7537 22.287 15.1644 22.1688C15.575 22.0505 15.9281 21.7859 16.1567 21.4248C18.083 17.9939 20.8796 15.1312 24.2647 13.1254C27.6498 11.1196 31.5038 10.0416 35.4384 9.99984C40.6892 10.0875 45.7481 11.9882 49.7577 15.3796C53.7673 18.7711 56.4809 23.4447 57.4384 28.6082C57.4887 28.8584 57.5958 29.0937 57.7515 29.296C57.9072 29.4983 58.1072 29.6621 58.3362 29.7748C58.5652 29.8876 58.8171 29.9462 59.0723 29.9462C59.3275 29.9462 59.5794 29.8876 59.8084 29.7748C61.7334 28.823 63.8526 28.3296 66 28.3332C67.9381 28.3777 69.8485 28.8037 71.6219 29.5868C73.3954 30.3698 74.9972 31.4946 76.3358 32.8968C77.6744 34.2991 78.7237 35.9513 79.4236 37.7592C80.1235 39.567 80.4604 41.4951 80.415 43.4332C80.4149 43.8381 80.5621 44.2292 80.8293 44.5334C81.0964 44.8377 81.4652 45.0343 81.8667 45.0865C84.7242 45.5575 87.3057 47.0708 89.1123 49.3342C90.919 51.5976 91.8226 54.4503 91.6485 57.3411C91.4744 60.2319 90.235 62.9555 88.1697 64.9857C86.1045 67.0159 83.36 68.2086 80.4667 68.3332H70.7717C70.1429 68.3312 69.52 68.4542 68.9391 68.6951C68.3583 68.936 67.8311 69.29 67.3884 69.7365C66.919 70.2091 66.5489 70.7707 66.2996 71.3884C66.0503 72.006 65.9269 72.6672 65.9367 73.3332C66.0011 74.8454 65.7585 76.355 65.2237 77.7709C64.6889 79.1868 63.8728 80.4798 62.8248 81.5718C61.7767 82.6639 60.5184 83.5324 59.1257 84.125C57.7329 84.7175 56.2346 85.0219 54.721 85.0198C53.2074 85.0177 51.7099 84.709 50.3189 84.1125C48.9278 83.516 47.6719 82.6439 46.627 81.549C45.582 80.454 44.7697 79.1587 44.2388 77.7412C43.708 76.3238 43.4697 74.8135 43.5384 73.3015C43.5439 72.6404 43.4184 71.9848 43.1689 71.3726C42.9194 70.7604 42.551 70.2038 42.085 69.7348C41.642 69.2893 41.115 68.936 40.5345 68.6954C39.9541 68.4548 39.3317 68.3317 38.7034 68.3332H17.7484C13.8497 68.2496 10.1431 66.6238 7.4411 63.8121C4.73905 61.0004 3.26189 57.2321 3.33337 53.3332C3.29261 50.3805 4.12933 47.4822 5.73749 45.0056C7.34565 42.529 9.65285 40.5855 12.3667 39.4215C12.7189 39.2753 13.0104 39.0127 13.1924 38.6775C13.3744 38.3423 13.4359 37.9549 13.3667 37.5798C13.1085 36.1791 12.9796 34.7575 12.9817 33.3332C12.9817 32.8911 12.8061 32.4672 12.4935 32.1547C12.181 31.8421 11.7571 31.6665 11.315 31.6665C10.873 31.6665 10.4491 31.8421 10.1365 32.1547C9.82396 32.4672 9.64837 32.8911 9.64837 33.3332C9.64764 34.5259 9.72559 35.7174 9.8817 36.8998C6.87515 38.4562 4.35952 40.8165 2.61487 43.7178C0.870229 46.6192 -0.0349751 49.9478 3.41223e-05 53.3332C-0.0708616 58.116 1.75766 62.7317 5.0847 66.1684C8.41175 69.6051 12.9658 71.5823 17.7484 71.6665Z" fill="#37C44D"/>
<path d="M26.6663 43.3333C28.1285 43.33 29.5657 43.7123 30.833 44.4417C31.2139 44.6409 31.6571 44.6853 32.0699 44.5655C32.4828 44.4458 32.8334 44.1711 33.0485 43.7989C33.2636 43.4268 33.3266 42.9859 33.2243 42.5683C33.1221 42.1508 32.8624 41.7889 32.4997 41.5583C30.726 40.5362 28.7146 39.9988 26.6674 40C24.6203 40.0012 22.6095 40.5411 20.8371 41.5654C19.0646 42.5897 17.5929 44.0623 16.5697 45.8354C15.5465 47.6084 15.0078 49.6195 15.0078 51.6667C15.0078 53.7138 15.5465 55.7249 16.5697 57.498C17.5929 59.271 19.0646 60.7437 20.8371 61.7679C22.6095 62.7922 24.6203 63.3321 26.6674 63.3333C28.7146 63.3346 30.726 62.7971 32.4997 61.775C32.8624 61.5444 33.1221 61.1825 33.2243 60.765C33.3266 60.3475 33.2636 59.9066 33.0485 59.5344C32.8334 59.1622 32.4828 58.8876 32.0699 58.7678C31.6571 58.648 31.2139 58.6924 30.833 58.8917C29.7259 59.528 28.4873 59.9014 27.213 59.983C25.9387 60.0646 24.6626 59.8522 23.4834 59.3623C22.3042 58.8724 21.2533 58.1181 20.4119 57.1575C19.5705 56.197 18.9611 55.0559 18.6308 53.8224C18.3004 52.589 18.258 51.2961 18.5067 50.0436C18.7554 48.7911 19.2886 47.6125 20.0652 46.5988C20.8418 45.5851 21.8409 44.7635 22.9855 44.1973C24.13 43.6311 25.3894 43.3355 26.6663 43.3333Z" fill="#37C44D"/>
<path d="M58.3333 51.6667C58.3333 49.3592 57.6491 47.1036 56.3671 45.185C55.0852 43.2664 53.2631 41.7711 51.1313 40.8881C48.9995 40.0051 46.6537 39.774 44.3906 40.2242C42.1275 40.6743 40.0487 41.7855 38.4171 43.4171C36.7855 45.0487 35.6743 47.1275 35.2242 49.3906C34.774 51.6537 35.0051 53.9995 35.8881 56.1313C36.7711 58.2631 38.2664 60.0852 40.185 61.3671C42.1036 62.6491 44.3592 63.3333 46.6667 63.3333C49.7598 63.3298 52.7252 62.0995 54.9124 59.9124C57.0995 57.7252 58.3298 54.7598 58.3333 51.6667ZM38.3333 51.6667C38.3333 50.0185 38.8221 48.4073 39.7378 47.0369C40.6534 45.6665 41.9549 44.5984 43.4776 43.9677C45.0004 43.3369 46.6759 43.1719 48.2924 43.4935C49.9089 43.815 51.3938 44.6087 52.5592 45.7741C53.7247 46.9396 54.5183 48.4244 54.8399 50.0409C55.1614 51.6574 54.9964 53.333 54.3657 54.8557C53.7349 56.3784 52.6668 57.6799 51.2964 58.5956C49.926 59.5113 48.3148 60 46.6667 60C44.4573 59.9974 42.3393 59.1185 40.777 57.5563C39.2148 55.9941 38.336 53.876 38.3333 51.6667Z" fill="#37C44D"/>
<path d="M71.6669 40.555C71.6669 39.0079 71.0523 37.5242 69.9583 36.4302C68.8644 35.3363 67.3807 34.7217 65.8336 34.7217C64.2865 34.7217 62.8027 35.3363 61.7088 36.4302C60.6148 37.5242 60.0002 39.0079 60.0002 40.555C60.0002 40.997 60.1758 41.421 60.4884 41.7335C60.8009 42.0461 61.2249 42.2217 61.6669 42.2217C62.1089 42.2217 62.5328 42.0461 62.8454 41.7335C63.158 41.421 63.3336 40.997 63.3336 40.555C63.4045 39.9417 63.6984 39.3759 64.1594 38.9652C64.6203 38.5544 65.2162 38.3275 65.8336 38.3275C66.451 38.3275 67.0468 38.5544 67.5078 38.9652C67.9687 39.3759 68.2626 39.9417 68.3336 40.555C68.3336 42.4767 63.9336 45.4317 60.9602 46.8233C60.6165 46.9839 60.3379 47.2569 60.1704 47.5973C60.0028 47.9376 59.9564 48.325 60.0388 48.6953C60.1212 49.0656 60.3274 49.3967 60.6234 49.6339C60.9194 49.8711 61.2875 50.0003 61.6669 50H70.0002C70.4423 50 70.8662 49.8244 71.1787 49.5119C71.4913 49.1993 71.6669 48.7754 71.6669 48.3333C71.6669 47.8913 71.4913 47.4674 71.1787 47.1548C70.8662 46.8423 70.4423 46.6667 70.0002 46.6667H67.6369C69.7536 45.0283 71.6669 42.8983 71.6669 40.555Z" fill="#37C44D"/>
<path d="M95 71.6665C94.0111 71.6665 93.0444 71.9598 92.2222 72.5092C91.3999 73.0586 90.759 73.8395 90.3806 74.7531C90.0022 75.6667 89.9031 76.672 90.0961 77.642C90.289 78.6119 90.7652 79.5028 91.4645 80.202C92.1637 80.9013 93.0546 81.3775 94.0246 81.5704C94.9945 81.7634 95.9998 81.6643 96.9134 81.2859C97.827 80.9075 98.6079 80.2666 99.1573 79.4444C99.7068 78.6221 100 77.6554 100 76.6665C100 75.3404 99.4732 74.0687 98.5355 73.131C97.5979 72.1933 96.3261 71.6665 95 71.6665ZM95 78.3332C94.6704 78.3332 94.3481 78.2354 94.0741 78.0523C93.8 77.8692 93.5864 77.6089 93.4602 77.3043C93.3341 76.9998 93.3011 76.6647 93.3654 76.3414C93.4297 76.0181 93.5884 75.7211 93.8215 75.488C94.0546 75.2549 94.3515 75.0962 94.6748 75.0319C94.9982 74.9676 95.3333 75.0006 95.6378 75.1267C95.9424 75.2529 96.2027 75.4665 96.3858 75.7406C96.5689 76.0146 96.6667 76.3369 96.6667 76.6665C96.6667 77.1085 96.4911 77.5325 96.1785 77.845C95.866 78.1576 95.442 78.3332 95 78.3332Z" fill="#37C44D"/>
<path d="M71.667 84.9998C71.667 86.648 72.1557 88.2592 73.0714 89.6296C73.9871 91 75.2886 92.0681 76.8113 92.6988C78.334 93.3296 80.0096 93.4946 81.6261 93.173C83.2426 92.8515 84.7274 92.0578 85.8929 90.8924C87.0583 89.727 87.852 88.2421 88.1735 86.6256C88.4951 85.0091 88.33 83.3335 87.6993 81.8108C87.0686 80.2881 86.0005 78.9866 84.6301 78.0709C83.2597 77.1552 81.6485 76.6665 80.0003 76.6665C77.791 76.6692 75.6729 77.548 74.1107 79.1102C72.5485 80.6724 71.6696 82.7905 71.667 84.9998ZM85.0003 84.9998C85.0003 85.9887 84.7071 86.9554 84.1577 87.7777C83.6083 88.5999 82.8274 89.2408 81.9137 89.6192C81.0001 89.9977 79.9948 90.0967 79.0249 89.9038C78.055 89.7108 77.1641 89.2346 76.4648 88.5354C75.7655 87.8361 75.2893 86.9452 75.0964 85.9753C74.9035 85.0054 75.0025 84.0001 75.3809 83.0864C75.7594 82.1728 76.4002 81.3919 77.2225 80.8425C78.0447 80.2931 79.0114 79.9998 80.0003 79.9998C81.3264 79.9998 82.5982 80.5266 83.5359 81.4643C84.4735 82.402 85.0003 83.6738 85.0003 84.9998Z" fill="#37C44D"/>
</g>
<defs>
<clipPath id="clip0_683_158">
<rect width="100" height="100" fill="white"/>
</clipPath>
</defs>
</svg>
