<svg width="354" height="94" viewBox="0 0 354 94" fill="none" xmlns="http://www.w3.org/2000/svg">
<path d="M184.559 32.372V39.8121C184.559 41.1182 184.333 42.3696 183.923 43.5321C182.802 46.7051 180.292 49.2216 177.119 50.3362C175.957 50.7465 174.705 50.9722 173.399 50.9722H165.959C164.653 50.9722 163.401 50.7465 162.239 50.3362C159.066 49.2148 156.556 46.7051 155.435 43.5321C155.025 42.3696 154.799 41.1182 154.799 39.8121V32.372C154.799 31.0659 155.025 29.8145 155.435 28.652C156.556 25.479 159.066 22.9694 162.239 21.8479C163.401 21.4376 164.653 21.2119 165.959 21.2119H173.399C174.705 21.2119 175.957 21.4376 177.119 21.8479C180.292 22.9694 182.802 25.479 183.923 28.652C184.333 29.8145 184.559 31.0659 184.559 32.372ZM177.119 32.372C177.119 30.3137 175.451 28.652 173.399 28.652H165.959C163.901 28.652 162.239 30.3205 162.239 32.372V39.8121C162.239 41.8704 163.907 43.5321 165.959 43.5321H173.399C175.457 43.5321 177.119 41.8636 177.119 39.8121V32.372Z" fill="white"/>
<path d="M217.636 36.093H210.196V32.373C210.196 30.3147 208.528 28.653 206.476 28.653H202.756C198.646 28.653 195.316 31.9832 195.316 36.093V47.1643C195.316 49.2704 193.606 50.98 191.5 50.98H187.876V25.0287C187.876 22.9156 189.586 21.2061 191.699 21.2061H195.323V23.196C197.511 21.9309 200.055 21.2061 202.763 21.2061H206.483C207.789 21.2061 209.041 21.4317 210.203 21.842C213.376 22.9635 215.886 25.4732 217.007 28.6461C217.417 29.8086 217.643 31.06 217.643 32.3662V36.0862L217.636 36.093Z" fill="white"/>
<path d="M228.385 39.8199C228.385 41.8782 230.054 43.5399 232.105 43.5399H246.644C248.887 43.5399 250.706 45.3589 250.706 47.6019V50.98H232.099C230.792 50.98 229.541 50.7543 228.379 50.344C225.206 49.2226 222.696 46.7129 221.574 43.5399C221.164 42.3774 220.938 41.126 220.938 39.8199V32.3798C220.938 31.0737 221.164 29.8223 221.574 28.6598C222.696 25.4868 225.206 22.9772 228.379 21.8557C229.541 21.4454 230.792 21.2197 232.099 21.2197H239.539C240.845 21.2197 242.096 21.4454 243.259 21.8557C246.432 22.9772 248.941 25.4868 250.063 28.6598C250.473 29.8223 250.699 31.0737 250.699 32.3798V39.8199H228.372H228.385ZM228.385 32.3798H243.272C243.272 30.3215 241.604 28.6598 239.552 28.6598H232.112C230.054 28.6598 228.392 30.3283 228.392 32.3798H228.385Z" fill="white"/>
<path d="M309.475 50.9799H302.034C300.728 50.9799 299.477 50.7543 298.314 50.344C295.141 49.2225 292.632 46.7129 291.51 43.5399C291.1 42.3774 290.874 41.126 290.874 39.8198V28.6529H287.154V21.2128H290.874V14.1557C290.874 11.9196 292.686 10.1006 294.929 10.1006H298.314V21.2128H305.754V28.6529H298.314V39.8198C298.314 41.8782 299.983 43.5399 302.034 43.5399H306.049C307.943 43.5399 309.475 45.0717 309.475 46.9659V50.9799Z" fill="white"/>
<path d="M315.314 10.0459H320.252V14.9832C320.252 16.3645 319.13 17.486 317.749 17.486H312.812V12.5487C312.812 11.1674 313.933 10.0459 315.314 10.0459Z" fill="white"/>
<path d="M316.538 21.2119H320.258V47.43C320.258 49.3926 318.665 50.9859 316.703 50.9859H312.812V24.9388C312.812 22.8805 314.48 21.2119 316.538 21.2119Z" fill="white"/>
<path d="M349.54 50.898H345.854V32.291C345.854 30.2326 344.186 28.5709 342.134 28.5709H330.967V47.3147C330.967 49.291 329.36 50.898 327.384 50.898H323.527V21.1309H342.134C343.44 21.1309 344.692 21.3565 345.854 21.7668C349.027 22.8883 351.537 25.4048 352.658 28.5709C353.069 29.7334 353.294 30.9849 353.294 32.291V47.1369C353.294 49.2158 351.612 50.898 349.533 50.898H349.54Z" fill="white"/>
<path d="M139.713 51.0005H121.729V21.883C121.729 15.3524 127.008 10.0391 133.49 10.0391H151.475V21.1787H144.035V17.4791H133.49C131.111 17.4791 129.169 19.4554 129.169 21.883V43.5536H139.713C142.093 43.5536 144.035 41.5773 144.035 39.1497H151.475C151.475 45.6803 146.196 50.9936 139.713 50.9936V51.0005Z" fill="white"/>
<path d="M280.268 50.9185H276.363V32.3115C276.363 30.2531 274.695 28.5914 272.643 28.5914H261.476V47.2463C261.476 49.2773 259.828 50.9185 257.804 50.9185H254.036V21.1514H272.643C273.949 21.1514 275.201 21.377 276.363 21.7873C279.536 22.9088 282.046 25.4253 283.167 28.5914C283.578 29.7539 283.803 31.0054 283.803 32.3115V47.3831C283.803 49.3388 282.224 50.9185 280.268 50.9185Z" fill="white"/>
<path d="M193.811 81.438C193.811 82.4842 193.633 83.4963 193.298 84.4263C192.395 86.977 190.378 88.9943 187.827 89.8969C186.891 90.2252 185.885 90.4098 184.839 90.4098H178.856C177.809 90.4098 176.797 90.232 175.867 89.8969C173.317 88.9943 171.299 86.977 170.397 84.4263C170.068 83.4894 169.884 82.4842 169.884 81.438V78.4496H172.872C174.52 78.4496 175.86 79.7899 175.86 81.438C175.86 81.438 175.86 81.4927 175.86 81.5132C175.901 83.127 177.221 84.4263 178.849 84.4263H184.832C186.48 84.4263 187.821 83.086 187.821 81.438V60.4307C187.821 58.8237 189.127 57.5176 190.734 57.5176H193.804V81.438H193.811Z" fill="white"/>
<path d="M300.133 75.4611V81.4446C300.133 82.4909 299.955 83.4961 299.62 84.433C298.718 86.9836 296.7 89.0009 294.15 89.9036C293.213 90.2318 292.208 90.4165 291.161 90.4165H285.178C284.132 90.4165 283.12 90.2387 282.19 89.9036C279.639 89.0009 277.622 86.9836 276.719 84.433C276.391 83.4961 276.206 82.4909 276.206 81.4446V75.4611C276.206 74.4148 276.384 73.4028 276.719 72.4728C277.622 69.9221 279.639 67.9048 282.19 67.0021C283.126 66.6739 284.132 66.4893 285.178 66.4893H291.161C292.208 66.4893 293.213 66.6671 294.15 67.0021C296.7 67.9048 298.718 69.9221 299.62 72.4728C299.949 73.4096 300.133 74.4148 300.133 75.4611ZM294.15 75.4611C294.15 73.8062 292.809 72.4728 291.161 72.4728H285.178C283.523 72.4728 282.19 73.8131 282.19 75.4611V81.4446C282.19 83.0995 283.53 84.433 285.178 84.433H291.161C292.816 84.433 294.15 83.0926 294.15 81.4446V75.4611Z" fill="white"/>
<path d="M353.293 90.225V90.4096H349.238C347.283 90.4096 345.457 89.4591 344.335 87.8589L341.935 84.433L341.805 84.2483C341.573 83.9201 341.094 83.9201 340.861 84.2483L340.731 84.433L338.338 87.8521C337.21 89.4591 335.377 90.4165 333.415 90.4165H329.373V90.2318L333.435 84.433L335.357 81.6908L337.456 78.6956C337.593 78.4973 337.593 78.2306 337.456 78.0323L335.357 75.0371L333.565 72.4796L329.38 66.4961H333.62C335.541 66.4961 337.34 67.4329 338.441 69.0057L340.875 72.4796C341.108 72.8078 341.593 72.8078 341.819 72.4796L344.253 69.0057C345.354 67.4329 347.153 66.4961 349.074 66.4961H353.314L349.129 72.4796L347.337 75.0371L345.238 78.0323C345.101 78.2306 345.101 78.4973 345.238 78.6956L347.337 81.6908L349.259 84.433L353.321 90.2318L353.293 90.225Z" fill="white"/>
<path d="M202.455 81.4378C202.455 83.0927 203.796 84.4261 205.444 84.4261H217.13C218.936 84.4261 220.399 85.8895 220.399 87.6948V90.4096H205.45C204.404 90.4096 203.399 90.2318 202.462 89.8968C199.911 88.9941 197.894 86.9768 196.991 84.4261C196.663 83.4893 196.479 82.4841 196.479 81.4378V75.4543C196.479 74.408 196.656 73.4028 196.991 72.4659C197.894 69.9152 199.911 67.898 202.462 66.9953C203.399 66.6671 204.404 66.4824 205.45 66.4824H211.434C212.48 66.4824 213.485 66.6602 214.422 66.9953C216.973 67.898 218.99 69.9152 219.893 72.4659C220.221 73.4028 220.406 74.408 220.406 75.4543V81.4378H202.462H202.455ZM202.455 75.4543H214.415C214.415 73.7994 213.075 72.4659 211.427 72.4659H205.444C203.789 72.4659 202.455 73.8062 202.455 75.4543Z" fill="white"/>
<path d="M305.638 66.4893H308.776V81.4378C308.776 83.0858 310.117 84.4261 311.765 84.4261H320.737V69.4366C320.737 67.8091 322.056 66.4824 323.691 66.4824H326.72V90.4028H311.772C310.725 90.4028 309.72 90.225 308.783 89.8899C306.233 88.9873 304.215 86.97 303.313 84.4193C302.984 83.4824 302.8 82.4772 302.8 81.4309V69.3203C302.8 67.7544 304.072 66.4824 305.638 66.4824V66.4893Z" fill="white"/>
<path d="M273.552 75.4613V87.5719C273.552 89.1379 272.28 90.4098 270.714 90.4098H267.576V75.4544C267.576 73.7996 266.235 72.4661 264.587 72.4661H255.615V87.4488C255.615 89.0832 254.296 90.403 252.661 90.403H249.632V60.5401C249.632 58.8852 250.972 57.5449 252.62 57.5449H255.609V66.4757H264.58C265.627 66.4757 266.639 66.6604 267.569 66.9886C270.119 67.8913 272.137 69.9086 273.039 72.4593C273.374 73.3961 273.552 74.4013 273.552 75.4476V75.4613Z" fill="white"/>
<path d="M237.932 90.3891H223.072V75.5295C223.072 70.5512 227.121 66.5029 232.092 66.5029H246.958V75.4543H240.975V72.4796H232.092C230.417 72.4796 229.056 73.8473 229.056 75.5226V84.4056H237.932C239.594 84.4056 240.954 83.0585 240.975 81.3967L246.958 81.4651C246.904 86.3819 242.855 90.3823 237.932 90.3823V90.3891Z" fill="white"/>
<path d="M61.5315 21.0688C62.9812 22.5117 65.3268 22.5117 66.7696 21.0688L69.4161 18.4224L50.9937 0L32.5713 18.4224L35.2177 21.0688C36.6674 22.5185 39.0061 22.5185 40.4559 21.0688L50.9937 10.531L61.5315 21.0688Z" fill="white"/>
<path d="M47.273 14.2513V39.7103L38.0892 48.8941C37.7746 48.8463 37.4464 48.8121 37.1181 48.8121C33.5691 48.8121 30.7038 51.7388 30.8064 55.3084C30.8953 58.6045 33.6443 61.3467 36.9403 61.4424C40.5099 61.5381 43.4367 58.6729 43.4367 55.1238C43.4367 54.7956 43.4025 54.4742 43.3478 54.1528L47.273 50.2344V93.2884H50.9862C53.0445 93.2884 54.7131 91.6198 54.7131 89.5615V36.4211L58.563 40.2779C58.5152 40.5924 58.481 40.9138 58.481 41.2489C58.481 44.798 61.4078 47.6564 64.9774 47.5606C68.2734 47.4717 71.0224 44.7228 71.1113 41.4267C71.2071 37.8571 68.3487 34.9303 64.7996 34.9303C64.4645 34.9303 64.1431 34.9645 63.8285 35.0124L54.7131 25.8969V14.2513L50.993 10.5312L47.273 14.2513Z" fill="white"/>
<path d="M47.2732 63.0562V73.5803L34.93 85.9235L0 50.9934L23.6058 27.3944C25.0692 25.931 27.4421 25.931 28.9055 27.3944L31.5177 30.0067L10.531 50.9934L34.93 75.3925L47.2732 63.0562Z" fill="white"/>
<path d="M101.986 50.9934L67.056 85.9235L54.7129 73.5803V63.0562L67.056 75.3925L91.4551 50.9934L70.4683 30.0067L73.0806 27.3944C74.544 25.931 76.9169 25.931 78.3803 27.3944L101.979 50.9934H101.986Z" fill="white"/>
</svg>
