<svg width="100" height="100" viewBox="0 0 100 100" fill="none" xmlns="http://www.w3.org/2000/svg">
<g clip-path="url(#clip0_683_248)">
<path d="M91.6666 1.66699H45.0949C44.0123 1.66633 42.9968 2.19149 42.3716 3.07533L16.8716 39.037C16.5116 39.5452 16.465 40.2118 16.7508 40.7651C17.0366 41.3185 17.6071 41.6663 18.2299 41.667H34.8966C35.2215 41.6669 35.5169 41.8556 35.6533 42.1506C35.7896 42.4455 35.7421 42.7928 35.5316 43.0403L10.6749 72.252C10.2527 72.7469 10.157 73.4423 10.4299 74.0328C10.7028 74.6233 11.2944 75.0011 11.9449 75.0003H19.8332C20.1617 75.0003 20.4596 75.1933 20.5938 75.4931C20.7281 75.7929 20.6737 76.1436 20.4549 76.3887L5.78823 92.867C5.18313 93.5938 4.91524 94.5434 5.0513 95.4793C5.18736 96.4152 5.71456 97.2492 6.50156 97.7737C7.65406 98.543 9.16234 98.5191 10.2899 97.7137L52.4349 68.0303C53.0319 67.6106 53.2864 66.8512 53.0629 66.1564C52.8393 65.4616 52.1897 64.9931 51.4599 65.0003H41.2932C40.9207 65.0008 40.5931 64.7539 40.4909 64.3957C40.3886 64.0375 40.5366 63.6549 40.8532 63.4587L81.7816 38.0837C82.4146 37.6913 82.7105 36.9266 82.5065 36.2104C82.3025 35.4941 81.648 35.0002 80.9032 35.0003H59.2499C58.8912 35.0003 58.5728 34.7708 58.4593 34.4305C58.3459 34.0902 58.4629 33.7155 58.7499 33.5003L93.6432 7.68033C94.7993 6.82532 95.2768 5.32538 94.8278 3.9594C94.3788 2.59343 93.1044 1.66933 91.6666 1.66699Z" fill="#F3FBF4"/>
<path d="M80.9037 35H75.9037C76.6484 34.9998 77.3029 35.4938 77.507 36.2101C77.711 36.9263 77.4151 37.691 76.782 38.0833L35.8554 63.4583C35.5387 63.6546 35.3908 64.0371 35.493 64.3954C35.5952 64.7536 35.9228 65.0005 36.2954 65H41.2954C40.9228 65.0005 40.5952 64.7536 40.493 64.3954C40.3908 64.0371 40.5387 63.6546 40.8554 63.4583L81.782 38.0833C82.4151 37.691 82.711 36.9263 82.507 36.2101C82.3029 35.4938 81.6484 34.9998 80.9037 35Z" fill="#D6F3DA"/>
<path d="M51.4604 65H46.4604C47.1874 64.9994 47.8309 65.4702 48.0505 66.1633C48.2701 66.8564 48.0151 67.6118 47.4204 68.03L5.90039 97.2717C6.07569 97.4607 6.27259 97.6286 6.48706 97.7717C7.63993 98.5418 9.14914 98.5179 10.2771 97.7117L52.4204 68.0283C53.0136 67.6097 53.2675 66.8551 53.0481 66.163C52.8287 65.4709 52.1865 65.0005 51.4604 65Z" fill="#D6F3DA"/>
<path d="M91.6666 1.66699H86.6666C88.1057 1.66646 89.3827 2.58955 89.8335 3.95624C90.2842 5.32293 89.807 6.82459 88.65 7.68033L53.7533 33.5003C53.4664 33.7155 53.3493 34.0902 53.4627 34.4305C53.5762 34.7708 53.8946 35.0003 54.2533 35.0003H59.2533C58.8946 35.0003 58.5762 34.7708 58.4627 34.4305C58.3493 34.0902 58.4664 33.7155 58.7533 33.5003L93.6433 7.68033C94.7994 6.82532 95.2769 5.32538 94.8279 3.9594C94.3788 2.59343 93.1045 1.66933 91.6666 1.66699Z" fill="#D6F3DA"/>
<path d="M42.372 3.07533L16.872 39.037C16.5121 39.5452 16.4655 40.2118 16.7513 40.7651C17.0371 41.3185 17.6076 41.6664 18.2304 41.667H23.2304C22.6073 41.667 22.0362 41.3194 21.75 40.7659C21.4638 40.2124 21.5102 39.5455 21.8704 39.037L47.3704 3.07533C47.9959 2.19101 49.0122 1.6658 50.0954 1.66699L45.0954 1.667C44.0128 1.66634 42.9973 2.19149 42.372 3.07533Z" fill="#F3FBF4"/>
<path d="M5.9003 97.2722C6.07559 97.4612 6.2725 97.629 6.48696 97.7722C7.63984 98.5423 9.14905 98.5184 10.277 97.7122L10.9003 97.2705C9.75507 96.0435 9.7008 94.1563 10.7736 92.8655L25.4486 76.3872C25.6655 76.1429 25.7198 75.7945 25.5873 75.4959C25.4549 75.1973 25.1602 75.0037 24.8336 75.0005H19.8336C20.1621 75.0005 20.46 75.1934 20.5942 75.4933C20.7285 75.7931 20.6741 76.1438 20.4553 76.3888L5.78863 92.8672C4.71165 94.1542 4.75949 96.0413 5.9003 97.2722Z" fill="#F3FBF4"/>
<path d="M11.9451 75.0003H16.9451C16.293 75.0044 15.6985 74.6278 15.4235 74.0366C15.1485 73.4454 15.2435 72.7481 15.6667 72.252L40.5317 43.0403C40.7423 42.7928 40.7898 42.4455 40.6534 42.1506C40.5171 41.8556 40.2217 41.6669 39.8967 41.667H34.8967C35.2217 41.6669 35.5171 41.8556 35.6534 42.1506C35.7898 42.4455 35.7423 42.7928 35.5317 43.0403L10.6751 72.252C10.2529 72.7469 10.1572 73.4423 10.4301 74.0328C10.703 74.6233 11.2945 75.0011 11.9451 75.0003Z" fill="#F3FBF4"/>
<path d="M33.2891 12.9751L40.9957 2.0951L43.7157 4.02176L36.0091 14.9018L33.2891 12.9751Z" fill="#F3FBF4"/>
<path d="M38.5481 10.1785C37.6276 10.1832 36.8777 9.44069 36.8731 8.52022C36.8685 7.59974 37.6109 6.84982 38.5314 6.84521H38.5481C39.4685 6.84521 40.2147 7.59141 40.2147 8.51188C40.2147 9.43236 39.4685 10.1785 38.5481 10.1785Z" fill="#37C44D"/>
<path d="M96.4102 3.4352C95.7537 1.37372 93.8302 -0.0191875 91.6668 0.000199846H45.0951C43.4725 0.00179388 41.951 0.788639 41.0118 2.11187C40.4885 2.86296 40.6689 3.89557 41.4159 4.42471C42.1629 4.95385 43.1969 4.78143 43.7318 4.03853C44.0446 3.59582 44.5531 3.33285 45.0951 3.33353H91.6668C92.3913 3.31814 93.0378 3.78571 93.2502 4.47853C93.4922 5.16206 93.2505 5.92317 92.6585 6.34187L57.7618 32.1569C56.8939 32.7988 56.536 33.9252 56.8743 34.9503C57.2126 35.9754 58.1707 36.6676 59.2502 36.6669H80.9035L39.9768 62.0419C39.0271 62.6304 38.5833 63.7777 38.8895 64.8522C39.1958 65.9267 40.1779 66.6675 41.2952 66.6669H51.4618L9.30681 96.3552C8.74284 96.7596 7.98731 96.7722 7.41015 96.3869C7.01463 96.1266 6.74997 95.709 6.68348 95.2402C6.61267 94.7905 6.73357 94.3316 7.01681 93.9752L21.6935 77.5002C22.3503 76.7658 22.5146 75.7142 22.113 74.8145C21.7113 73.9148 20.8187 73.3349 19.8335 73.3335H11.9451L36.8018 44.1202C37.4335 43.3777 37.576 42.3358 37.1669 41.451C36.7578 40.5662 35.8716 39.9999 34.8968 40.0002H18.2301L36.0185 14.9152C36.3629 14.4293 36.422 13.7966 36.1735 13.2553C35.9249 12.7141 35.4065 12.3465 34.8135 12.2912C34.2205 12.2358 33.6429 12.501 33.2985 12.9869L15.5118 38.0719C14.7907 39.0886 14.6972 40.4227 15.2693 41.5302C15.8414 42.6376 16.9836 43.3333 18.2301 43.3335H33.0951L9.40515 71.1669C8.55859 72.1566 8.366 73.5487 8.91205 74.7311C9.4581 75.9135 10.6428 76.6696 11.9451 76.6669H17.9685L4.50015 91.8002C2.89087 93.7308 2.96486 96.556 4.673 98.3997C6.38114 100.243 9.19247 100.533 11.2401 99.0752L53.3801 69.3935C54.5696 68.5571 55.0796 67.0462 54.6404 65.6601C54.2012 64.2739 52.9142 63.3324 51.4601 63.3335H44.2201L82.6668 39.5002C83.9337 38.7151 84.5254 37.1843 84.116 35.7512C83.7066 34.3181 82.3956 33.331 80.9052 33.3335H61.7768L94.6335 9.0202C96.3881 7.75083 97.1089 5.48502 96.4102 3.4352Z" fill="#37C44D"/>
<path d="M35.2137 24.6937C35.5743 24.9498 36.022 25.0521 36.4581 24.9781C36.8942 24.904 37.2829 24.6596 37.5387 24.2987L47.1787 10.7037C47.4911 10.2625 47.9981 10.0003 48.5387 10.0003H53.3337C54.2542 10.0003 55.0004 9.25413 55.0004 8.33366C55.0004 7.41318 54.2542 6.66699 53.3337 6.66699H48.5387C46.9176 6.66806 45.3973 7.45367 44.4587 8.77533L34.8187 22.3687C34.5625 22.7293 34.4602 23.1769 34.5343 23.613C34.6084 24.0491 34.8528 24.4379 35.2137 24.6937Z" fill="#37C44D"/>
</g>
<defs>
<clipPath id="clip0_683_248">
<rect width="100" height="100" fill="white"/>
</clipPath>
</defs>
</svg>
