<svg width="100" height="100" viewBox="0 0 100 100" fill="none" xmlns="http://www.w3.org/2000/svg">
<path d="M6.18519 32.8164L9.17432 18.3306H3.76756C2.98303 18.4237 2.22714 18.0036 1.89195 17.2882C1.55676 16.5728 1.71771 15.7231 2.29132 15.1798L16.9637 2.21192C18.4116 0.933961 20.8593 2.06697 20.4944 3.84645L17.5136 18.3306H22.912C23.6958 18.2385 24.4505 18.6584 24.7854 19.3729C25.1204 20.0874 24.9604 20.9362 24.3882 21.4797L9.71583 34.4509C8.26792 35.7289 5.82029 34.5959 6.18519 32.8164Z" fill="#F3FBF4"/>
<path d="M63.3289 21.959C63.3289 29.3207 57.3611 35.2885 49.9994 35.2885C42.6377 35.2885 36.6699 29.3207 36.6699 21.959C36.6699 10.8939 49.9994 1.66992 49.9994 1.66992C49.9994 1.66992 63.3289 10.8939 63.3289 21.959Z" fill="#F3FBF4"/>
<path d="M49.9993 1.66992C49.9993 1.66992 48.9679 2.39138 47.5 3.63935C51.3555 6.92173 58.3302 13.9464 58.3302 21.959C58.2746 28.278 53.7223 33.6596 47.5 34.762C48.3243 34.9155 49.1609 34.993 49.9993 34.9936C57.2803 35.0723 63.2473 29.2351 63.3287 21.954C63.3287 10.8939 49.9993 1.66992 49.9993 1.66992Z" fill="#D6F3DA"/>
<path d="M74.2887 27.6807C76.6159 32.7571 82.0073 35.6956 87.5348 34.9003C90.5086 34.5533 93.2698 33.1853 95.3476 31.0297C96.827 29.4809 97.8029 27.5205 98.1468 25.4064C98.5696 23.2491 98.2328 21.0121 97.1937 19.0749C95.8024 16.4673 92.7733 14.5262 90.7889 12.6851C89.1014 11.233 87.856 9.33582 87.1949 7.20998C86.6625 5.34157 86.9273 3.33613 87.9264 1.66992C84.0942 3.48106 81.4116 5.94368 80.5069 10.2158C79.9519 12.6419 80.5388 15.1886 82.0997 17.1271C83.0508 18.1744 83.3561 19.6565 82.8962 20.9943C82.2395 22.5163 80.7577 23.5174 79.1006 23.5586C77.8914 23.6396 76.7078 23.184 75.8651 22.313C75.0224 21.442 74.606 20.2441 74.7269 19.0382C72.9712 21.6088 72.802 24.9458 74.2887 27.6807Z" fill="#F3FBF4"/>
<path d="M97.1969 19.0765C95.8056 16.469 92.7765 14.5279 90.792 12.6867C89.1045 11.2347 87.8592 9.33748 87.1981 7.21165C86.6662 5.34227 86.9322 3.33609 87.9329 1.66992C85.5472 2.67451 83.4992 4.34146 82.0312 6.47353C82.0762 6.71013 82.1296 6.95173 82.1979 7.20332C82.859 9.32915 84.1043 11.2263 85.7918 12.6784C87.7763 14.5195 90.8054 16.4606 92.1966 19.0682C93.2358 21.0054 93.5725 23.2425 93.1497 25.3997C92.8067 27.5134 91.8321 29.4738 90.3538 31.0231C88.4824 32.9645 86.0486 34.2694 83.3959 34.7537C84.7623 35.0081 86.1592 35.0552 87.5397 34.8936C90.5133 34.5462 93.2744 33.1783 95.3524 31.0231C96.8312 29.4763 97.8076 27.5183 98.1532 25.4064C98.5746 23.2493 98.2367 21.0128 97.1969 19.0765Z" fill="#D6F3DA"/>
<path d="M76.6563 71.6491C76.6486 84.3169 67.722 95.2276 55.3066 97.7441C42.8913 100.261 30.4207 93.6871 25.4809 82.0221C20.541 70.3571 24.498 56.8268 34.9448 49.6617C45.3916 42.4966 59.439 43.6783 68.542 52.488C73.7336 57.5101 76.6622 64.4259 76.6563 71.6491Z" fill="#F3FBF4"/>
<path d="M68.5439 52.4881C63.5767 47.6661 56.9221 44.9755 49.9993 44.9903C49.1562 44.9903 48.3231 45.0369 47.5 45.1136C61.1678 46.4327 71.5979 57.9179 71.5979 71.6492C71.5979 85.3806 61.1678 96.8658 47.5 98.1849C48.3231 98.2615 49.1562 98.3082 49.9993 98.3082C60.8642 98.3121 70.6444 91.722 74.7205 81.6507C78.7966 71.5795 76.353 60.0421 68.5439 52.4881Z" fill="#D6F3DA"/>
<path d="M7.2761 15.1832L20.4906 3.50155C20.393 2.71368 19.8627 2.0467 19.117 1.77416C18.3714 1.50161 17.5359 1.66935 16.9533 2.20859L2.27755 15.1832C1.70685 15.7269 1.54777 16.5747 1.8825 17.2884C2.21724 18.002 2.9708 18.4217 3.75379 18.3306H8.75234C7.96935 18.4217 7.21579 18.002 6.88105 17.2884C6.54632 16.5747 6.7054 15.7269 7.2761 15.1832Z" fill="#F3FBF4"/>
<path d="M11.168 32.8159L14.1488 18.3301H9.15024L6.16943 32.8159C5.80454 34.5954 8.25216 35.7284 9.70008 34.4504L11.158 33.1591C11.1496 33.0447 11.1529 32.9297 11.168 32.8159Z" fill="#F3FBF4"/>
<path d="M28.3189 71.6492C28.3134 57.8937 38.7827 46.3963 52.4785 45.1169C51.6554 45.0402 50.824 44.9902 49.9793 44.9902C35.2559 44.9902 23.3203 56.9258 23.3203 71.6492C23.3203 86.3725 35.2559 98.3081 49.9793 98.3081C50.824 98.3081 51.6554 98.2581 52.4785 98.1815C38.7827 96.9021 28.3134 85.4047 28.3189 71.6492Z" fill="#F3FBF4"/>
<path d="M10 43.3252H13.3324V56.6547H10V43.3252Z" fill="#F3FBF4"/>
<path d="M51.6573 28.3291C51.6573 27.4089 50.9113 26.6629 49.9911 26.6629C47.3129 26.7368 45.0786 24.6321 44.9925 21.9543C44.9925 21.0341 44.2465 20.2881 43.3263 20.2881C42.4061 20.2881 41.6602 21.0341 41.6602 21.9543C41.7468 26.4724 45.4727 30.0686 49.9911 29.9953C50.9113 29.9953 51.6573 29.2493 51.6573 28.3291Z" fill="#37C44D"/>
<path d="M93.6424 12.9436C93.0243 12.4354 92.4294 11.9439 91.9029 11.459C90.4433 10.2145 89.3631 8.58458 88.7855 6.75541C88.3675 5.28168 88.5965 3.69969 89.4153 2.40501C89.724 1.7697 89.5986 1.00876 89.1024 0.506118C88.6061 0.00347854 87.8468 -0.131619 87.2076 0.168987C82.4457 2.42167 79.7981 5.50077 78.8684 9.88284C78.2065 12.7854 78.9094 15.8313 80.7762 18.1504C81.3838 18.7391 81.5979 19.6253 81.326 20.4265C80.8968 21.3131 80.005 21.8827 79.02 21.8994C78.2489 21.9237 77.5033 21.6211 76.9673 21.0663C76.4994 20.5683 76.2831 19.8849 76.3791 19.2085C76.4535 18.4934 76.0609 17.8113 75.4053 17.5164C74.7497 17.2216 73.9789 17.3804 73.4933 17.9105C71.6788 19.8866 70.809 24.2303 72.7785 28.3858C74.9743 33.2038 79.6884 36.3817 84.9783 36.6101V56.6526C84.9783 57.5728 84.2323 58.3188 83.3121 58.3188H74.9812C73.5907 55.7161 71.8044 53.3452 69.686 51.2908C64.8217 46.5758 58.4189 43.7749 51.6546 43.4031V36.5718C59.1703 35.8082 64.9107 29.5167 64.9841 21.9627C64.9841 10.1594 51.5096 0.703832 50.9348 0.302282C50.3662 -0.0942501 49.6106 -0.0942501 49.042 0.302282C48.4672 0.698833 34.9928 10.1544 34.9928 21.9577C35.0661 29.5117 40.8065 35.8032 48.3222 36.5668V43.3981C41.5556 43.7684 35.1502 46.5693 30.2841 51.2858C28.1683 53.3426 26.3842 55.7151 24.9957 58.3188H14.9986C14.0783 58.3188 13.3324 57.5728 13.3324 56.6526C13.3324 55.7324 12.5864 54.9864 11.6662 54.9864C10.746 54.9864 10 55.7324 10 56.6526C10 59.4132 12.2379 61.6512 14.9986 61.6512H23.4961C19.0363 73.4386 22.9009 86.7549 32.9782 94.3234C43.0555 101.892 56.9213 101.892 66.9986 94.3234C77.0759 86.7549 80.9406 73.4386 76.4807 61.6512H83.3121C86.0727 61.6512 88.3106 59.4132 88.3106 56.6526V36.4585C91.4529 35.9735 94.3485 34.4689 96.5516 32.1764C98.2525 30.3896 99.3764 28.1324 99.7773 25.6983C100.267 23.1733 99.8699 20.5569 98.6543 18.2904C97.3448 16.201 95.6428 14.3853 93.6424 12.9436ZM43.2737 85.9025C47.6653 84.6695 52.3116 84.6695 56.7031 85.9025C55.0686 92.4906 52.4394 96.641 49.9884 96.641C47.5375 96.641 44.9082 92.4906 43.2737 85.9025ZM43.7102 95.8229C40.1272 94.9015 36.7964 93.1883 33.9631 90.8094C35.8186 89.2512 37.8922 87.973 40.1179 87.0155C40.8243 90.1284 42.0379 93.104 43.7102 95.8229ZM25.079 69.9821C25.4366 64.3304 27.7234 58.9728 31.5571 54.8048C33.89 56.8256 36.5389 58.4495 39.3981 59.6118C38.7805 63.036 38.4318 66.5034 38.3551 69.9821H25.079ZM56.7031 57.3941C52.3116 58.627 47.6653 58.627 43.2737 57.3941C44.9082 50.806 47.5375 46.6555 49.9884 46.6555C52.4394 46.6555 55.0686 50.806 56.7031 57.3941ZM56.2666 47.4736C59.8496 48.3951 63.1804 50.1083 66.0138 52.4872C64.1583 54.0454 62.0847 55.3236 59.8589 56.2811C59.1526 53.1681 57.9389 50.1926 56.2666 47.4736ZM40.1179 56.2811C37.8925 55.3239 35.8194 54.0457 33.9647 52.4872C36.7977 50.1086 40.1279 48.3955 43.7102 47.4736C42.0379 50.1926 40.8243 53.1681 40.1179 56.2811ZM42.5939 60.6515C47.4341 61.98 52.5428 61.98 57.3829 60.6515C57.9181 63.7346 58.2206 66.8536 58.2877 69.9821H41.6891C41.7563 66.8536 42.0587 63.7346 42.5939 60.6515ZM58.2877 73.3145C58.2206 76.443 57.9181 79.562 57.3829 82.6451C52.5428 81.3166 47.4341 81.3166 42.5939 82.6451C42.0587 79.562 41.7563 76.443 41.6891 73.3145H58.2877ZM59.8589 87.0155C62.0843 87.9726 64.1575 89.2508 66.0121 90.8094C63.1791 93.1879 59.849 94.9011 56.2666 95.8229C57.9389 93.104 59.1526 90.1284 59.8589 87.0155ZM60.5787 83.6831C61.1962 80.2594 61.5449 76.7926 61.6217 73.3145H74.8979C74.5402 78.9661 72.2534 84.3237 68.4197 88.4917C66.0869 86.4709 63.4379 84.8453 60.5787 83.6831ZM61.6217 69.9821C61.545 66.5034 61.1963 63.036 60.5787 59.6118C63.4379 58.4495 66.0869 56.8256 68.4197 54.8048C72.2534 58.9728 74.5402 64.3304 74.8979 69.9821H61.6217ZM38.3251 21.9577C38.3251 13.5551 47.0526 6.04228 49.9884 3.75295C52.9242 6.04228 61.6517 13.5551 61.6517 21.9577C61.6517 28.3991 56.4299 33.621 49.9884 33.621C43.547 33.621 38.3251 28.3991 38.3251 21.9577ZM25.079 73.3145H38.3551C38.4318 76.7931 38.7805 80.2605 39.3981 83.6848C36.5389 84.847 33.89 86.4709 31.5571 88.4917C27.7234 84.3237 25.4366 78.9661 25.079 73.3145ZM96.4983 25.1068C96.2159 26.9008 95.3941 28.5663 94.1423 29.882C92.3289 31.7512 89.9271 32.9386 87.3409 33.2444C82.5275 33.941 77.8296 31.3866 75.7976 26.9679C75.3153 25.9706 75.0376 24.8868 74.9812 23.7805C76.1435 24.7732 77.6376 25.2909 79.165 25.2301C81.4916 25.1539 83.5592 23.7254 84.4534 21.5761C85.1242 19.7015 84.7256 17.6106 83.4121 16.1144C82.1485 14.5646 81.6752 12.5163 82.1308 10.5693C82.5196 8.49967 83.6201 6.63121 85.2415 5.2875C85.2412 6.09226 85.3534 6.89311 85.5748 7.66681C86.3152 10.0894 87.7258 12.2532 89.6436 13.9083C90.2084 14.4315 90.8549 14.9647 91.5264 15.5179C93.1768 16.6954 94.5957 18.1674 95.7118 19.8599C96.578 21.4636 96.8562 23.3196 96.4983 25.1068Z" fill="#37C44D"/>
<path d="M10.0002 43.3234C10.0002 44.2436 10.7462 44.9896 11.6664 44.9896C12.5866 44.9896 13.3326 44.2436 13.3326 43.3234V33.4713L25.4841 22.731C26.5642 21.8207 26.9494 20.3261 26.4438 19.0071C25.8716 17.5618 24.4588 16.6266 22.9048 16.6645H19.5508L22.1184 4.18474C22.4109 2.72984 21.7238 1.25369 20.4222 0.540796C18.9661 -0.314531 17.1261 -0.142748 15.8535 0.967339L1.1811 13.9352C0.0987646 14.8464 -0.286603 16.3437 0.221376 17.6642C0.796388 19.1059 2.20869 20.0368 3.76035 19.9968H7.11438L4.54679 32.4799C4.25382 33.9357 4.94086 35.4131 6.24296 36.1272C6.85047 36.4796 7.54007 36.6657 8.24239 36.667C8.85426 36.663 9.45653 36.5145 10.0002 36.2338V43.3234ZM8.12409 33.3263C8.00725 33.3059 7.89796 33.2547 7.80751 33.178V33.1597L10.79 18.6639C10.8901 18.1736 10.7645 17.6643 10.448 17.2767C10.1315 16.8892 9.65751 16.6644 9.15712 16.6645H3.76035C3.43544 16.6645 3.34047 16.4978 3.38713 16.4312L18.0595 3.46328C18.1572 3.37811 18.2832 3.33237 18.4128 3.33499C18.4558 3.33518 18.4987 3.33908 18.5411 3.34665C18.6628 3.36046 18.7748 3.42002 18.8543 3.51327L15.8752 17.9974C15.7751 18.4877 15.9007 18.997 16.2172 19.3846C16.5337 19.7721 17.0076 19.9969 17.508 19.9968H22.9048C23.238 19.9968 23.3247 20.1634 23.278 20.2318L8.60561 33.2013C8.47501 33.3189 8.29537 33.3655 8.12409 33.3263Z" fill="#37C44D"/>
<path d="M11.7038 51.6527C10.7836 51.6573 10.0339 50.915 10.0293 49.9948C10.0247 49.0746 10.767 48.3249 11.6872 48.3203H11.7038C12.624 48.3203 13.37 49.0663 13.37 49.9865C13.37 50.9067 12.624 51.6527 11.7038 51.6527Z" fill="#37C44D"/>
</svg>
