<svg width="100" height="100" viewBox="0 0 100 100" fill="none" xmlns="http://www.w3.org/2000/svg">
<path d="M82.4665 81.6667C75.8835 90.8464 65.7216 96.8098 54.497 98.0803C43.2725 99.3508 32.0348 95.8095 23.5665 88.3334H31.6665C34.428 88.3334 36.6665 86.0948 36.6665 83.3334C36.6665 80.5719 38.9051 78.3334 41.6665 78.3334H44.9999C47.1915 78.3439 49.1299 76.9138 49.7665 74.8167C49.9209 74.3374 49.9996 73.8369 49.9999 73.3334C49.9999 70.5719 47.7613 68.3334 44.9999 68.3334H11.6665C11.5379 68.328 11.409 68.3392 11.2832 68.3667C10.5678 65.6307 10.1487 62.8257 10.0332 60H21.6665C24.428 60 26.6665 57.7615 26.6665 55C26.6664 53.6741 27.1942 52.4028 28.1332 51.4667C28.7035 50.8917 29.4081 50.4679 30.1832 50.2334C32.0089 52.4912 34.8783 53.6359 37.7568 53.2548C40.6353 52.8737 43.1079 51.0218 44.2832 48.3667C45.4626 50.4087 47.6417 51.6666 49.9999 51.6666C52.358 51.6666 54.5371 50.4087 55.7165 48.3667C56.7841 50.7693 58.9206 52.5291 61.4832 53.1167C60.0453 54.5429 59.6097 56.6956 60.3801 58.5686C61.1505 60.4416 62.9746 61.6649 64.9999 61.6667H69.9999C72.7613 61.6667 74.9999 63.9053 74.9999 66.6667C74.9999 69.4281 72.7613 71.6667 69.9999 71.6667H63.3332C61.1416 71.6562 59.2032 73.0862 58.5665 75.1834C58.4122 75.6627 58.3335 76.1631 58.3332 76.6667C58.3332 79.4281 60.5718 81.6667 63.3332 81.6667H82.4665Z" fill="#F3FBF4"/>
<path d="M77.4672 81.6665C70.5375 91.3383 59.6522 97.4119 47.7822 98.2298C48.5206 98.2715 49.2522 98.3332 50.0006 98.3332C62.8786 98.3441 74.9698 92.1371 82.4672 81.6665H77.4672Z" fill="#D6F3DA"/>
<path d="M90.0007 58.3332C90.0159 66.7112 87.3789 74.8791 82.4673 81.6665H63.334C60.5726 81.6665 58.334 79.4279 58.334 76.6665C58.3343 76.1629 58.413 75.6625 58.5673 75.1832C59.204 73.086 61.1424 71.656 63.334 71.6665H70.0007C72.7621 71.6665 75.0007 69.4279 75.0007 66.6665C75.0007 63.9051 72.7621 61.6665 70.0007 61.6665H65.0007C62.9754 61.6647 61.1512 60.4415 60.3809 58.5684C59.6105 56.6954 60.0461 54.5427 61.484 53.1165C62.0894 53.2644 62.7108 53.3371 63.334 53.3332C65.1382 53.3404 66.8949 52.7548 68.334 51.6665H89.434C89.817 53.8679 90.0067 56.0987 90.0007 58.3332Z" fill="#F3FBF4"/>
<path d="M89.4335 51.6665H84.4335C84.8165 53.8679 85.0061 56.0987 85.0001 58.3332C85.0154 66.7112 82.3783 74.8791 77.4668 81.6665H82.4668C87.3783 74.8791 90.0154 66.7112 90.0001 58.3332C90.0061 56.0987 89.8165 53.8679 89.4335 51.6665Z" fill="#D6F3DA"/>
<path d="M89.434 51.6665H68.334C70.4303 50.091 71.6647 47.6222 71.6673 44.9999C71.6505 44.6706 71.6171 44.3424 71.5673 44.0165C72.5975 44.6585 73.7868 44.9991 75.0007 44.9999C78.4002 44.9847 81.2437 42.414 81.6006 39.0332C82.6244 39.6599 83.8003 39.9942 85.0007 39.9999C85.1791 40.0054 85.3576 39.9942 85.534 39.9665C87.4312 43.6414 88.7469 47.5883 89.434 51.6665Z" fill="#F3FBF4"/>
<path d="M85.5335 39.9665C85.3571 39.9942 85.1786 40.0054 85.0002 39.9999C83.7998 39.9942 82.6239 39.6599 81.6002 39.0332C81.5169 39.7252 81.3263 40.4 81.0352 41.0332C82.6603 44.401 83.8042 47.9804 84.4335 51.6665H89.4335C88.7464 47.5883 87.4307 43.6414 85.5335 39.9665Z" fill="#D6F3DA"/>
<path d="M30.1834 50.2332C29.4082 50.4677 28.7037 50.8916 28.1334 51.4665C27.1943 52.4026 26.6666 53.674 26.6667 54.9999C26.6667 57.7613 24.4281 59.9999 21.6667 59.9999H10.0334C10.0167 59.4499 10 58.8999 10 58.3332C9.99333 51.9412 11.5254 45.6416 14.4667 39.9665C14.643 39.9942 14.8216 40.0054 15 39.9999C16.2004 39.9942 17.3762 39.6599 18.4 39.0332C18.7569 42.414 21.6005 44.9847 25 44.9999C26.2138 44.9991 27.4032 44.6585 28.4334 44.0165C28.3836 44.3424 28.3502 44.6706 28.3334 44.9999C28.3339 46.9045 28.9868 48.7514 30.1834 50.2332Z" fill="#F3FBF4"/>
<path d="M91.6671 33.3333C91.6673 36.8063 88.9961 39.6952 85.5338 39.9666C85.3574 39.9943 85.1789 40.0055 85.0004 40C83.8001 39.9943 82.6242 39.66 81.6004 39.0333C81.2435 42.4141 78.3999 44.9848 75.0004 45C73.7866 44.9992 72.5973 44.6586 71.5671 44.0166C71.6169 44.3425 71.6503 44.6707 71.6671 45C71.6645 47.6223 70.4301 50.0911 68.3338 51.6666C66.8947 52.7549 65.138 53.3405 63.3338 53.3333C62.7105 53.3373 62.0892 53.2645 61.4838 53.1166C58.9211 52.529 56.7847 50.7692 55.7171 48.3666C54.5377 50.4087 52.3586 51.6665 50.0004 51.6665C47.6423 51.6665 45.4632 50.4087 44.2838 48.3666C42.6878 51.9621 38.795 53.9518 34.946 53.1394C31.0971 52.327 28.3405 48.9337 28.3338 45C28.3506 44.6707 28.384 44.3425 28.4338 44.0166C27.4036 44.6586 26.2142 44.9992 25.0004 45C21.6009 44.9848 18.7573 42.4141 18.4004 39.0333C17.3766 39.66 16.2008 39.9943 15.0004 40C14.822 40.0055 14.6434 39.9943 14.4671 39.9666C10.9653 39.6978 8.27693 36.751 8.32987 33.2393C8.38281 29.7275 11.1588 26.8631 14.6671 26.7C13.3153 25.2471 12.9558 23.1299 13.7524 21.3123C14.549 19.4947 16.3493 18.324 18.3338 18.3333H18.3671C16.5897 15.9575 16.2148 12.8139 17.3836 10.0867C18.5524 7.35956 21.0874 5.4631 24.0336 5.11173C26.9798 4.76037 29.8897 6.00749 31.6671 8.3833C34.192 4.91365 38.9611 3.97 42.6171 6.21664C44.0207 3.42657 46.8772 1.66602 50.0004 1.66602C53.1237 1.66602 55.9801 3.42657 57.3838 6.21664C61.0398 3.97 65.8088 4.91365 68.3338 8.3833C70.1112 6.00749 73.021 4.76037 75.9672 5.11173C78.9135 5.4631 81.4484 7.35956 82.6172 10.0867C83.7861 12.8139 83.4112 15.9575 81.6338 18.3333H81.6671C83.6516 18.324 85.4519 19.4947 86.2485 21.3123C87.045 23.1299 86.6856 25.2471 85.3338 26.7C88.8762 26.868 91.6631 29.7869 91.6671 33.3333Z" fill="#F3FBF4"/>
<path d="M52.3833 6.2165C53.6564 5.44061 55.1143 5.02046 56.605 4.99984C55.0529 2.90846 52.6044 1.67278 50 1.6665C49.1509 1.66874 48.3074 1.8037 47.5 2.0665C49.6128 2.74918 51.3688 4.2415 52.3833 6.2165Z" fill="#D6F3DA"/>
<path d="M63.3339 8.38333C64.0089 7.4778 64.8591 6.71718 65.8339 6.14667C64.573 5.39769 63.1338 5.00163 61.6672 5C60.8236 5.00456 59.9861 5.14237 59.1855 5.40833C60.8455 5.94162 62.2964 6.98213 63.3339 8.38333Z" fill="#D6F3DA"/>
<path d="M80.5333 39.9665C80.3569 39.9942 80.1784 40.0054 79.9999 39.9999C78.7996 39.9942 77.6237 39.6599 76.5999 39.0332C76.3381 41.4639 74.7732 43.5591 72.5166 44.4999C73.3031 44.8294 74.1472 44.9993 74.9999 44.9999C78.0958 44.985 80.7694 42.8302 81.4416 39.8082C81.1428 39.8815 80.8393 39.9344 80.5333 39.9665Z" fill="#D6F3DA"/>
<path d="M70.0008 44.9999C68.7869 44.9992 67.5976 44.6585 66.5674 44.0166C66.6172 44.3425 66.6506 44.6707 66.6674 44.9999C66.6648 47.6223 65.4304 50.0911 63.3341 51.6666C62.5872 52.2279 61.7495 52.6569 60.8574 52.9349C61.0641 52.9999 61.2708 53.0683 61.4841 53.1166C62.0895 53.2645 62.7109 53.3372 63.3341 53.3333C65.1383 53.3405 66.895 52.7549 68.3341 51.6666C70.4304 50.0911 71.6648 47.6223 71.6674 44.9999C71.6674 44.9199 71.6558 44.8433 71.6491 44.7666C71.1118 44.9142 70.5579 44.9926 70.0008 44.9999Z" fill="#D6F3DA"/>
<path d="M85.3339 26.7001C86.6857 25.2472 87.0451 23.13 86.2486 21.3124C85.452 19.4948 83.6517 18.3241 81.6672 18.3334H81.6339C83.5514 15.8192 83.8738 12.434 82.4654 9.603C81.057 6.77204 78.1625 4.98722 75.0005 5.00007C74.1385 5.00357 73.2824 5.14306 72.4639 5.4134C75.0577 6.19633 77.1022 8.20225 77.9344 10.7807C78.7666 13.3591 78.2806 16.1818 76.6339 18.3334H76.6672C78.6517 18.3241 80.452 19.4948 81.2486 21.3124C82.0451 23.13 81.6857 25.2472 80.3339 26.7001C83.4564 26.8349 86.0605 29.1328 86.5829 32.2143C87.1053 35.2958 85.4042 38.3235 82.5005 39.4801C83.2906 39.8191 84.1408 39.9959 85.0005 40.0001C85.179 40.0056 85.3575 39.9944 85.5339 39.9667C89.0357 39.6979 91.724 36.7511 91.6711 33.2394C91.6181 29.7276 88.8422 26.8632 85.3339 26.7001Z" fill="#D6F3DA"/>
<path d="M49.9999 73.3333C49.9996 73.8369 49.9209 74.3374 49.7665 74.8167C49.1299 76.9138 47.1915 78.3439 44.9999 78.3333H41.6665C38.9051 78.3333 36.6665 80.5719 36.6665 83.3333C36.6665 86.0948 34.428 88.3333 31.6665 88.3333H23.5665C17.5578 83.0641 13.2771 76.1058 11.2832 68.3667C11.409 68.3392 11.5379 68.328 11.6665 68.3333H44.9999C47.7613 68.3333 49.9999 70.5719 49.9999 73.3333Z" fill="#F3FBF4"/>
<path d="M63.3334 24.9999C63.3392 18.5278 58.6964 12.9862 52.3233 11.8585C45.9502 10.7309 39.6876 14.3428 37.4722 20.4239C35.2568 26.505 37.7284 33.2989 43.3334 36.5349V38.3333C43.3334 40.1742 44.8258 41.6666 46.6668 41.6666H53.3334C54.2175 41.6666 55.0653 41.3154 55.6904 40.6903C56.3156 40.0652 56.6668 39.2173 56.6668 38.3333V36.5349C60.7907 34.1576 63.3322 29.76 63.3334 24.9999Z" fill="#F3FBF4"/>
<path d="M50 11.6665C49.1609 11.6688 48.324 11.7497 47.5 11.9082C52.9705 12.9488 57.2166 17.2822 58.1456 22.7728C59.0746 28.2634 56.4904 33.7525 51.6667 36.5348V38.3332C51.6667 40.1741 50.1743 41.6665 48.3333 41.6665H53.3333C55.1743 41.6665 56.6667 40.1741 56.6667 38.3332V36.5348C61.8803 33.5123 64.4183 27.3683 62.8579 21.5473C61.2974 15.7264 56.0264 11.6759 50 11.6665Z" fill="#F3FBF4"/>
<path d="M10.0338 60.0001C10.4958 70.894 15.3838 81.1275 23.5671 88.3334C30.296 94.2619 38.8271 97.7485 47.7821 98.2301C48.5204 98.2717 49.2521 98.3334 50.0004 98.3334C50.9354 98.3334 51.8621 98.2934 52.7821 98.2301C35.4118 97.2834 20.6507 85.2057 16.2838 68.3667C15.5683 65.6307 15.1493 62.8257 15.0338 60.0001C15.0171 59.4501 15.0004 58.9001 15.0004 58.3334C14.9937 51.9414 16.5258 45.6418 19.4671 39.9667C15.9653 39.6979 13.2769 36.7511 13.3299 33.2394C13.3828 29.7276 16.1588 26.8632 19.6671 26.7001C18.3153 25.2472 17.9558 23.13 18.7524 21.3124C19.549 19.4948 21.3493 18.3241 23.3338 18.3334H23.3671C21.7203 16.1823 21.2338 13.3601 22.0653 10.7817C22.8968 8.20337 24.9405 6.19712 27.5338 5.4134C26.7163 5.14341 25.8613 5.00392 25.0004 5.00007C21.8385 4.98722 18.9439 6.77204 17.5355 9.603C16.1271 12.434 16.4496 15.8192 18.3671 18.3334H18.3338C16.3493 18.3241 14.549 19.4948 13.7524 21.3124C12.9558 23.13 13.3153 25.2472 14.6671 26.7001C11.1588 26.8632 8.38281 29.7276 8.32987 33.2394C8.27693 36.7511 10.9653 39.6979 14.4671 39.9667C11.5258 45.6418 9.99374 51.9414 10.0004 58.3334C10.0004 58.9001 10.0171 59.4501 10.0338 60.0001Z" fill="#F3FBF4"/>
<path d="M10.624 44.6982L13.774 45.7916C12.3814 49.8264 11.6694 54.0648 11.6673 58.3332H8.33398C8.33651 53.6927 9.11039 49.085 10.624 44.6982Z" fill="#F3FBF4"/>
<path d="M10.5852 53.3582C9.6647 53.3628 8.91478 52.6204 8.91018 51.6999C8.90558 50.7794 9.64804 50.0295 10.5685 50.0249H10.5852C11.5057 50.0249 12.2518 50.7711 12.2518 51.6916C12.2518 52.612 11.5057 53.3582 10.5852 53.3582Z" fill="#37C44D"/>
<path d="M93.3338 33.3332C93.3322 29.8726 91.1854 26.7756 87.9454 25.5598C88.2023 24.8455 88.3337 24.0922 88.3338 23.3332C88.3339 20.6345 86.7095 18.2012 84.2171 17.1665C84.7341 15.9546 85.0005 14.6507 85.0004 13.3332C84.9949 7.81259 80.521 3.33866 75.0004 3.33315C72.5345 3.32682 70.1559 4.24499 68.3338 5.90649C65.52 3.37805 61.5175 2.66019 58.0004 4.05315C56.1314 1.50523 53.1604 0 50.0004 0C46.8405 0 43.8695 1.50523 42.0004 4.05315C38.4833 2.66059 34.481 3.37842 31.6671 5.90649C29.845 4.24499 27.4663 3.32682 25.0004 3.33315C19.4799 3.33866 15.0059 7.81259 15.0004 13.3332C15.0003 14.6507 15.2668 15.9546 15.7838 17.1665C13.2914 18.2012 11.667 20.6345 11.6671 23.3332C11.6672 24.0922 11.7985 24.8455 12.0554 25.5598C8.80915 26.7748 6.66032 29.8799 6.66701 33.3461C6.67369 36.8123 8.83448 39.909 12.0854 41.1115C11.5521 42.2882 11.0504 43.4798 10.6254 44.6982C10.4708 45.1216 10.4971 45.59 10.6982 45.9935C10.8994 46.397 11.2575 46.7 11.6888 46.8315C12.5496 47.0932 13.4649 46.6366 13.7738 45.7915C14.2775 44.3702 14.8623 42.9791 15.5254 41.6248C16.1114 41.5925 16.692 41.4964 17.2571 41.3382C18.4846 44.5473 21.5645 46.6667 25.0004 46.6665C25.597 46.6654 26.1917 46.5989 26.7738 46.4682C26.9413 47.5566 27.2894 48.6094 27.8038 49.5832C27.5021 49.7944 27.2184 50.0303 26.9554 50.2882C25.7007 51.5346 24.9967 53.2312 25.0004 54.9998C25.0004 56.8408 23.508 58.3332 21.6671 58.3332H11.6671C11.6671 57.4127 10.9209 56.6665 10.0004 56.6665C9.07994 56.6665 8.33375 57.4127 8.33375 58.3332C8.33375 58.8948 8.34875 59.4398 8.36709 59.9998V60.0665C8.48768 63.0091 8.9235 65.9302 9.66709 68.7798C9.92486 69.7887 10.2204 70.7831 10.5538 71.7632C10.9621 72.9732 11.4438 74.1515 11.9621 75.3115C13.9582 79.8109 16.7451 83.9159 20.1904 87.4315C20.9182 88.1726 21.6765 88.8898 22.4654 89.5832C34.7504 100.4 52.2308 103.022 67.1488 96.2855C82.0668 89.5488 91.6585 74.7017 91.6671 58.3332C91.6724 56.0054 91.475 53.6816 91.0771 51.3882C90.4708 47.8405 89.4063 44.3866 87.9104 41.1132C91.1637 39.9044 93.3252 36.8037 93.3338 33.3332ZM24.2304 86.6665C21.3631 84.0998 18.9152 81.1002 16.9754 77.7765C15.5988 75.4368 14.4737 72.958 13.6188 70.3815C13.5771 70.2548 13.5454 70.1265 13.5054 69.9998H45.0004C46.8414 69.9998 48.3338 71.4922 48.3338 73.3332C48.3338 75.1741 46.8414 76.6665 45.0004 76.6665H41.6671C37.9852 76.6665 35.0004 79.6513 35.0004 83.3332C35.0004 85.1741 33.508 86.6665 31.6671 86.6665H24.2304ZM50.0004 96.6665C42.3226 96.6549 34.8261 94.3318 28.4871 89.9998H31.6671C35.349 89.9998 38.3338 87.0151 38.3338 83.3332C38.3338 81.4922 39.8261 79.9998 41.6671 79.9998H45.0004C48.6823 79.9998 51.6671 77.0151 51.6671 73.3332C51.6671 69.6513 48.6823 66.6665 45.0004 66.6665H12.5988C12.2273 65.0191 11.9661 63.3487 11.8171 61.6665H21.6671C25.349 61.6665 28.3338 58.6817 28.3338 54.9998C28.3318 54.1159 28.6835 53.2679 29.3104 52.6448C29.4678 52.4961 29.6385 52.3622 29.8204 52.2448C31.8422 54.1807 34.587 55.1737 37.3794 54.9795C40.1718 54.7853 42.7527 53.4219 44.4871 51.2248C47.6302 54.0361 52.384 54.0361 55.5271 51.2248C56.4464 52.3765 57.6077 53.312 58.9288 53.9648C58.0107 56.0229 58.1964 58.4057 59.422 60.2968C60.6476 62.188 62.7469 63.3306 65.0004 63.3332H70.0004C71.8414 63.3332 73.3338 64.8255 73.3338 66.6665C73.3338 68.5074 71.8414 69.9998 70.0004 69.9998H63.3338C59.6519 69.9998 56.6671 72.9846 56.6671 76.6665C56.6671 80.3484 59.6519 83.3332 63.3338 83.3332H79.0138C71.7383 91.7807 61.1491 96.6471 50.0004 96.6665ZM81.5754 79.9998H63.3338C61.4928 79.9998 60.0004 78.5074 60.0004 76.6665C60.0004 74.8255 61.4928 73.3332 63.3338 73.3332H70.0004C73.6823 73.3332 76.6671 70.3484 76.6671 66.6665C76.6671 62.9846 73.6823 59.9998 70.0004 59.9998H65.0004C63.7925 60.0064 62.6765 59.3557 62.0872 58.3012C61.4979 57.2467 61.5285 55.9552 62.1671 54.9298C64.5002 55.2105 66.8566 54.6439 68.8071 53.3332H87.9738C88.2066 54.9898 88.3268 56.6603 88.3338 58.3332C88.3479 66.0763 85.9893 73.6379 81.5754 79.9998ZM84.4721 41.6282C85.7643 44.2964 86.7419 47.1058 87.3854 49.9998H71.9738C72.612 48.9128 73.0373 47.7143 73.2271 46.4682C73.8092 46.5989 74.4038 46.6654 75.0004 46.6665C78.4355 46.6672 81.5152 44.5493 82.7438 41.3415C83.3077 41.4997 83.8873 41.5959 84.4721 41.6282ZM85.0004 38.3332C84.1005 38.3286 83.2191 38.0773 82.4521 37.6065C81.9642 37.3144 81.3611 37.2912 80.8523 37.545C80.3434 37.7988 79.999 38.2944 79.9388 38.8598C79.6825 41.3962 77.5498 43.3281 75.0004 43.3332C74.0922 43.3294 73.2027 43.0745 72.4304 42.5965C71.8859 42.2679 71.2019 42.2777 70.6671 42.622C70.1323 42.9662 69.8401 43.5848 69.9138 44.2165L69.9504 44.5065C69.9789 44.6695 69.9956 44.8344 70.0004 44.9998C69.988 48.1409 67.7847 50.8473 64.7113 51.4963C61.638 52.1454 58.5285 50.561 57.2471 47.6932C56.9938 47.122 56.4425 46.7405 55.8188 46.7048H55.7238C55.1334 46.7044 54.587 47.0163 54.2871 47.5248C53.4042 49.058 51.7696 50.0029 50.0004 50.0029C48.2312 50.0029 46.5967 49.058 45.7138 47.5248C45.3974 46.9862 44.8065 46.6697 44.1829 46.7048C43.5593 46.7399 43.0076 47.1208 42.7538 47.6915C41.4725 50.5591 38.3635 52.1435 35.2903 51.4949C32.2172 50.8463 30.0136 48.1406 30.0004 44.9998C30.0049 44.8322 30.0217 44.6651 30.0504 44.4998L30.0871 44.2098C30.1608 43.5781 29.8685 42.9595 29.3338 42.6153C28.799 42.2711 28.1149 42.2612 27.5704 42.5898C26.7988 43.0701 25.9093 43.3274 25.0004 43.3332C22.4511 43.3281 20.3184 41.3962 20.0621 38.8598C20.0018 38.2944 19.6574 37.7988 19.1486 37.545C18.6397 37.2912 18.0366 37.3144 17.5488 37.6065C16.7818 38.0773 15.9003 38.3286 15.0004 38.3332C12.2827 38.3519 10.0505 36.191 9.98097 33.4741C9.91147 30.7573 12.0303 28.485 14.7454 28.3648C15.3898 28.3316 15.9571 27.9294 16.2018 27.3324C16.4464 26.7353 16.3245 26.0507 15.8888 25.5748C14.9957 24.6145 14.7523 23.2182 15.2678 22.0124C15.7833 20.8066 16.9608 20.0178 18.2721 19.9998C18.9429 20.0525 19.5769 19.6868 19.8671 19.0798C20.148 18.5127 20.0834 17.8353 19.7004 17.3315C18.8182 16.1849 18.338 14.7798 18.3338 13.3332C18.3338 9.65125 21.3185 6.66649 25.0004 6.66649C27.1086 6.66614 29.0902 7.67244 30.3338 9.37482C30.6621 9.77289 31.1511 10.0034 31.6671 10.0034C32.1831 10.0034 32.6721 9.77289 33.0004 9.37482C35.0362 6.63063 38.8235 5.88183 41.7504 7.64482C42.146 7.88324 42.6227 7.94685 43.0669 7.82047C43.5111 7.6941 43.883 7.38907 44.0938 6.97815C45.2126 4.74312 47.4977 3.33159 49.9971 3.33159C52.4965 3.33159 54.7816 4.74312 55.9004 6.97815C56.1112 7.38907 56.4831 7.6941 56.9273 7.82047C57.3715 7.94685 57.8482 7.88324 58.2438 7.64482C61.1721 5.87771 64.9641 6.62685 67.0004 9.37482C67.3288 9.77289 67.8178 10.0034 68.3338 10.0034C68.8498 10.0034 69.3388 9.77289 69.6671 9.37482C70.9106 7.67244 72.8923 6.66614 75.0004 6.66649C78.6823 6.66649 81.6671 9.65125 81.6671 13.3332C81.6623 14.7808 81.1808 16.1865 80.2971 17.3332C79.9141 17.837 79.8495 18.5143 80.1304 19.0815C80.417 19.6919 81.0536 20.0591 81.7254 20.0015C83.0367 20.0194 84.2142 20.8083 84.7297 22.0141C85.2452 23.2199 85.0018 24.6162 84.1088 25.5765C83.673 26.0524 83.5511 26.737 83.7958 27.334C84.0404 27.9311 84.6077 28.3332 85.2521 28.3665C87.9512 28.5062 90.0477 30.7705 89.9795 33.4724C89.9113 36.1742 87.7031 38.3299 85.0004 38.3332Z" fill="#37C44D"/>
<path d="M50.0005 10C43.3953 9.99703 37.5665 14.3174 35.6482 20.6379C33.73 26.9585 36.1745 33.7897 41.6672 37.4583V38.3333C41.6672 41.0948 43.9058 43.3333 46.6672 43.3333H53.3339C56.0953 43.3333 58.3339 41.0948 58.3339 38.3333V37.4583C63.8266 33.7897 66.2711 26.9585 64.3528 20.6379C62.4346 14.3174 56.6057 9.99703 50.0005 10ZM55.8339 35.0933C55.3187 35.3908 55.0012 35.9402 55.0005 36.535V38.3333C55.0005 39.2538 54.2544 40 53.3339 40H51.6672V38.3333C51.6672 37.4129 50.921 36.6667 50.0005 36.6667C49.0801 36.6667 48.3339 37.4129 48.3339 38.3333V40H46.6672C45.7467 40 45.0005 39.2538 45.0005 38.3333V36.535C44.9999 35.9402 44.6823 35.3908 44.1672 35.0933C39.5942 32.4531 37.3647 27.0706 38.7314 21.9701C40.0981 16.8697 44.7201 13.323 50.0005 13.323C55.2809 13.323 59.903 16.8697 61.2697 21.9701C62.6363 27.0706 60.4068 32.4531 55.8339 35.0933Z" fill="#37C44D"/>
<path d="M44.8338 22.5884C44.5677 22.0555 44.0374 21.705 43.4428 21.6691C42.8482 21.6331 42.2796 21.9171 41.9511 22.4141C41.6227 22.911 41.5843 23.5455 41.8505 24.0784L43.5172 27.4117C43.7833 27.9446 44.3136 28.2951 44.9082 28.331C45.5028 28.367 46.0714 28.083 46.3999 27.586C46.7283 27.0891 46.7667 26.4546 46.5005 25.9217L44.8338 22.5884Z" fill="#37C44D"/>
<path d="M57.4124 21.8415C57.0168 21.6437 56.5588 21.6112 56.1393 21.7513C55.7198 21.8913 55.3732 22.1924 55.1757 22.5881L53.5091 25.9215C53.0976 26.7453 53.4319 27.7467 54.2557 28.1581C55.0796 28.5696 56.081 28.2353 56.4924 27.4115L58.1591 24.0781C58.3568 23.6825 58.3893 23.2246 58.2492 22.8051C58.1092 22.3856 57.8082 22.0389 57.4124 21.8415Z" fill="#37C44D"/>
<path d="M51.1787 28.8215C50.5279 28.1708 49.4729 28.1708 48.822 28.8215L47.1554 30.4881C46.5237 31.1421 46.5328 32.1816 47.1757 32.8245C47.8185 33.4674 48.8581 33.4764 49.512 32.8448L50.0004 32.3565L50.4887 32.8448C51.1427 33.4764 52.1822 33.4674 52.8251 32.8245C53.4679 32.1816 53.477 31.1421 52.8454 30.4881L51.1787 28.8215Z" fill="#37C44D"/>
</svg>
