<svg width="97" height="31" viewBox="0 0 97 31" fill="none" xmlns="http://www.w3.org/2000/svg">
<path d="M96.9869 8.9818C96.9657 3.97005 92.9992 0.0299791 87.9749 0.00352442C85.9176 -0.00440553 83.8629 0.00352442 81.8056 0.00352442C79.7483 0.00352442 77.691 -0.00177298 75.6337 0.00352442C70.5565 0.0194005 66.5874 3.95947 66.5715 9.02149C66.5556 13.1653 66.553 17.3091 66.5715 21.4529C66.5953 26.4647 70.5592 30.4127 75.5835 30.4286C79.7272 30.4444 83.8709 30.4471 88.0146 30.4286C93.0256 30.4048 96.971 26.4382 96.9895 21.4132C97.0027 17.2694 97.0054 13.1256 96.9869 8.9818ZM78.561 20.5744C78.011 20.5162 78.0057 20.8232 78.0189 21.2148C78.0321 21.6302 78.0454 22.051 78.0031 22.4638C77.9581 22.9348 77.654 23.2338 77.1859 23.2576C76.6677 23.2841 76.345 22.9612 76.2551 22.4743C76.1917 22.1304 76.2102 21.7625 76.2393 21.408C76.2816 20.8681 76.2393 20.5533 75.5226 20.5559C74.8245 20.5586 74.7426 20.839 74.7928 21.3974C74.8272 21.7493 74.8219 22.1118 74.7822 22.4664C74.7293 22.9374 74.4305 23.2364 73.9625 23.2576C73.4442 23.2841 73.1269 22.9586 73.0317 22.4743C72.9708 22.1568 73.0052 21.8208 73.0132 21.4926C73.0211 20.9952 73.1374 20.4421 72.3018 20.5692C72.0718 20.6062 71.929 20.3971 71.9422 20.1563C71.9951 19.1799 71.8179 18.2009 72.0612 17.2297C72.204 16.6555 72.5054 16.2163 72.9497 15.8485C74.5733 14.5016 78.0771 15.0996 78.881 16.8566C79.1798 17.5102 79.0687 18.1982 79.0952 18.8756C79.0952 19.2328 79.074 19.5927 79.1004 19.9473C79.1295 20.3548 78.9656 20.6141 78.561 20.5744ZM77.6593 13.5755C76.3503 14.5545 74.7505 14.5783 73.3754 13.6072C72.2489 12.8134 71.6989 11.2019 72.077 9.81268C72.4763 8.35997 73.8964 7.20889 75.3878 7.16656C76.1917 7.14274 76.9982 7.15862 77.8021 7.16392C78.8043 7.17186 79.0819 7.4444 79.0952 8.42877C79.1004 8.81509 79.0952 9.20408 79.0952 9.82061C79.2089 11.1331 79.0185 12.5567 77.6593 13.5755ZM87.8665 14.6948C87.8691 16.0337 87.8559 17.3753 87.9009 18.7142C87.9352 19.7832 88.361 20.1563 89.4399 20.2463C90.1591 20.3072 90.8493 20.1643 91.6215 20.024V22.5537C91.6215 22.739 91.603 22.8766 91.3676 22.9454C89.6593 23.4561 86.8934 23.4958 85.5844 22.0404C84.8493 21.2254 84.6668 20.2675 84.6509 19.2514C84.6245 17.4044 84.6272 15.5574 84.6536 13.7104C84.6615 13.2156 84.5346 12.9854 84.019 13.0674C83.9317 13.0806 83.8391 13.0701 83.7492 13.0701C81.3481 13.0648 81.3587 13.0648 81.5888 10.6462C81.6232 10.2943 81.7316 10.1884 82.0648 10.2017C82.6307 10.2202 83.2018 10.1673 83.7624 10.2149C84.4156 10.2731 84.68 10.1223 84.6642 9.37342C84.6166 7.13216 84.6536 7.13216 86.8801 6.56589C87.1948 6.48386 87.5069 6.39918 87.8638 6.30658C87.8638 7.38355 87.8929 8.42612 87.8533 9.46604C87.8321 10.0191 87.9485 10.2625 88.5699 10.2202C89.4002 10.162 90.2358 10.2255 91.0688 10.1964C91.4866 10.1831 91.6162 10.3022 91.6347 10.7388C91.7431 13.0701 91.7563 13.0701 89.4716 13.0701C88.3998 13.0701 87.8647 13.6116 87.8665 14.6948Z" fill="#37C44D"/>
<path d="M11.2397 12.6355C11.1531 12.5362 8.65265 12.5231 8.63641 12.625C8.49029 13.4769 8.01129 12.936 7.71361 12.8106C5.20501 11.7601 2.2201 12.6982 0.720897 15.0343C-0.602419 17.0934 -0.0530606 20.2264 1.9522 21.7995C3.96016 23.3726 6.11969 23.498 8.4524 22.2385C8.64994 24.2401 7.94906 24.9953 5.97625 25.0292C5.30242 25.0397 4.6367 24.99 3.98723 24.8149C3.47035 24.6765 2.80464 24.2349 2.48801 24.4099C2.08209 24.6373 1.97927 25.3506 1.70323 25.834C1.48674 26.2156 1.5138 26.4194 1.97656 26.5918C3.89251 27.3026 5.85989 27.5717 7.86517 27.1327C10.2385 26.6127 11.3182 25.2644 11.3263 22.9414C11.3399 19.7326 11.3318 16.5211 11.3263 13.3097C11.3263 13.0849 11.421 12.8367 11.2397 12.6355ZM8.51734 17.7205V18.6899C8.51734 19.9965 8.30896 20.2578 6.96401 20.6236C5.41608 21.0469 3.89793 20.4329 3.19704 19.0976C2.53403 17.8407 2.85064 16.2703 3.9304 15.4393C5.13464 14.5117 7.11826 14.5247 8.24673 15.4419C8.49298 15.6405 8.52816 15.86 8.52276 16.1318C8.51193 16.6622 8.51734 17.19 8.51734 17.7205Z" fill="#37C44D"/>
<path d="M30.4668 12.9328C28.3326 11.9326 26.2544 12.3229 24.4728 13.8891C22.1302 15.949 22.0955 19.5958 24.4675 21.6816C26.8287 23.7647 30.1916 23.7027 32.804 21.6583C32.4942 21.3843 32.1469 21.1466 31.8878 20.839C31.3616 20.2213 30.8674 20.1463 30.0902 20.5392C28.5569 21.3094 26.6818 20.7563 25.9232 19.4563C25.6454 18.9781 25.5679 18.7016 26.3479 18.7171C28.5142 18.7584 30.6805 18.7197 32.8467 18.7403C33.3222 18.7429 33.5252 18.6628 33.5359 18.133C33.5786 15.7965 32.625 13.946 30.4668 12.9328ZM30.6805 16.7425C29.1526 16.7425 27.622 16.7399 26.0915 16.7425C25.4424 16.7451 25.7095 16.3677 25.8297 16.1093C26.2037 15.3081 26.8688 14.8273 27.7556 14.7214C28.8534 14.5921 29.7616 14.9721 30.3786 15.887C30.5362 16.1196 30.7205 16.3651 30.6805 16.7425Z" fill="#37C44D"/>
<path d="M43.6029 12.9845C41.6435 11.9492 39.73 12.2934 37.9724 13.6834C35.451 15.6758 35.5404 19.9188 37.9928 21.9816C40.1388 23.7862 43.8635 23.5463 45.7258 21.7104C45.3273 21.3505 44.9696 21.0558 44.6477 20.722C44.2569 20.3204 43.9554 20.1744 43.3576 20.5212C41.8427 21.4053 39.9753 20.9072 39.1833 19.5485C38.8793 19.0321 38.8078 18.7453 39.5972 18.7609C41.6128 18.8026 43.631 18.7557 45.6466 18.787C46.2163 18.7974 46.4462 18.6931 46.436 18.0359C46.4054 15.801 45.5444 14.0094 43.6029 12.9845ZM39.449 16.7763C38.8461 16.7868 38.8512 16.5416 39.0607 16.0931C39.4669 15.2273 40.3661 14.6796 41.3676 14.7187C42.5325 14.7631 43.2606 15.3603 43.7536 16.7685C42.2668 16.7685 40.8566 16.7529 39.449 16.7763Z" fill="#37C44D"/>
<path d="M59.3219 17.1073C59.3193 16.5111 59.3558 15.9148 59.1784 15.3318C58.2988 12.4299 54.9687 11.4255 52.2389 13.429C52.3876 12.6658 52.0744 12.5306 51.5447 12.581C51.1062 12.626 50.6573 12.6287 50.2215 12.581C49.6839 12.5253 49.5247 12.6949 49.5325 13.2621C49.5638 15.8909 49.5455 18.5198 49.5455 21.1487C49.5455 23.237 49.5455 23.2132 51.5943 23.2158C52.1397 23.2158 52.2832 23.0753 52.2728 22.5241C52.2363 20.5233 52.2885 18.5198 52.2415 16.519C52.2258 15.8856 52.479 15.4563 52.9461 15.1913C53.7708 14.7223 54.6686 14.558 55.5507 15.0509C56.3572 15.4987 56.6051 16.2779 56.6103 17.155C56.6155 18.4721 56.6103 19.7866 56.6103 21.101C56.6103 23.2529 56.6103 23.237 58.6981 23.2132C59.1888 23.2079 59.3454 23.0886 59.3349 22.5745C59.3036 20.7512 59.3271 18.928 59.3219 17.1073Z" fill="#37C44D"/>
<path d="M20.115 12.3831C19.0021 12.3936 18.027 12.7439 17.1638 13.8657C17.416 12.7386 16.9818 12.5463 16.2407 12.6438C15.8949 12.6885 15.5334 12.6859 15.1876 12.6438C14.6156 12.5753 14.4387 12.7728 14.4465 13.3706C14.4803 15.9199 14.4621 18.4718 14.4621 21.0236C14.4621 23.2674 14.4621 23.2516 16.6489 23.2068C17.104 23.1963 17.2392 23.0857 17.234 22.6143C17.208 20.7761 17.221 18.9353 17.2236 17.0971C17.2236 15.9962 17.6812 15.3879 18.7135 14.9876C19.4962 14.6874 20.258 14.7901 21.1265 14.9929C21.1265 14.3977 21.0719 13.8894 21.1369 13.397C21.2487 12.5542 20.7911 12.3752 20.115 12.3831Z" fill="#37C44D"/>
</svg>
