<svg width="100" height="74" viewBox="0 0 100 74" fill="none" xmlns="http://www.w3.org/2000/svg">
<path d="M77.6342 53.4726C76.3678 55.3657 73.8201 55.8989 71.9008 54.6726C71.8842 54.656 71.8674 54.656 71.8508 54.6392L71.5842 54.4558C73.4102 55.7567 73.8748 58.2716 72.6342 60.1392C72.0234 61.0626 71.0701 61.7046 69.9848 61.9235C68.8996 62.1425 67.7719 61.9202 66.8508 61.3058L64.1008 59.4058C65.8502 60.7835 66.2684 63.264 65.0674 65.1392C64.4566 66.0626 63.5033 66.7048 62.418 66.9235C61.3328 67.1425 60.2049 66.9202 59.284 66.3058L56.584 64.3892C56.7414 64.5198 56.8916 64.6591 57.034 64.8058C58.6023 66.2968 58.7707 68.7394 57.4215 70.4313C56.0723 72.1233 53.6533 72.503 51.8508 71.3058L44.9174 66.6724H44.9008L19.5842 50.406L18.6842 49.6894L14.7842 46.5728L27.7842 27.0728H48.3342L59.3676 36.5228L60.001 37.0728L73.8176 45.9728L76.4842 47.6894C77.0574 48.08 77.5312 48.5993 77.8676 49.206V49.2226C78.5684 50.5763 78.4789 52.2038 77.6342 53.4726Z" fill="#D6F3DA"/>
<path d="M74.3008 51.1894C73.0344 53.0825 70.4867 53.6157 68.5674 52.3894C68.5508 52.3728 68.534 52.3728 68.5174 52.356L68.2508 52.1726C70.0768 53.4735 70.5414 55.9884 69.3008 57.856C68.69 58.7794 67.7367 59.4214 66.6514 59.6403C65.5662 59.8593 64.4385 59.637 63.5174 59.0226L60.7674 57.1226C62.5168 58.5003 62.9352 60.9808 61.734 62.856C61.1232 63.7794 60.1699 64.4216 59.0846 64.6403C57.9994 64.8593 56.8715 64.637 55.9506 64.0226L53.2506 62.106C53.4078 62.2368 53.558 62.3759 53.7006 62.5226C55.2687 64.0136 55.4367 66.4562 54.0877 68.1479C52.7387 69.8397 50.3201 70.2194 48.5174 69.0226L41.584 64.3892H41.5674L18.6842 49.6894L14.7842 46.5728L27.7842 27.0728H47.6676L56.6676 34.7894L59.3676 36.5228L73.151 45.4062C73.3953 45.5675 73.6191 45.7577 73.8176 45.9728C74.098 46.256 74.3391 46.5755 74.5342 46.9228V46.9394C75.235 48.2929 75.1457 49.9204 74.3008 51.1894Z" fill="#F3FBF4"/>
<path d="M24.3209 60.5986C23.6069 59.7552 23.2569 58.6628 23.3483 57.5615C23.4397 56.4601 23.9647 55.4404 24.808 54.7261L30.0006 50.713C31.7569 49.2259 34.386 49.4441 35.8731 51.2003C37.3602 52.9566 37.142 55.5857 35.3858 57.0726L30.1932 61.0855C28.4371 62.5728 25.808 62.3546 24.3209 60.5986Z" fill="#F3FBF4"/>
<path d="M18.4099 55.677C17.8447 55.0096 17.5679 54.145 17.6402 53.2735C17.7125 52.402 18.1281 51.5948 18.7955 51.0297L22.9048 47.8538C23.5722 47.2885 24.4369 47.0118 25.3084 47.084C26.1798 47.1563 26.9871 47.5719 27.5521 48.2393C28.7289 49.6292 28.5564 51.7098 27.1666 52.8866L23.0572 56.0626C21.6675 57.2393 19.5869 57.0669 18.4099 55.677Z" fill="#F3FBF4"/>
<path d="M36.4975 68.8996C35.3225 67.4887 35.5137 65.3924 36.9245 64.2172L41.0989 60.9861C42.4905 59.7883 44.5897 59.9453 45.7878 61.3367C46.9628 62.7477 46.7716 64.844 45.3608 66.0192L41.1864 69.2502C39.7948 70.4481 37.6956 70.291 36.4975 68.8996Z" fill="#F3FBF4"/>
<path d="M30.0076 65.6073C29.4423 64.9399 29.1656 64.0753 29.2379 63.2038C29.3101 62.3323 29.7257 61.5251 30.3931 60.9601L36.5976 56.1175C37.9875 54.9407 40.0681 55.1132 41.2451 56.503C42.422 57.8929 42.2494 59.9735 40.8595 61.1503L34.655 65.9929C33.2652 67.1698 31.1843 66.9972 30.0076 65.6073Z" fill="#F3FBF4"/>
<path d="M29.1334 25.0395L27.7834 27.0729L14.7834 46.5729L14.2 47.4396C13.7168 48.1731 12.7475 48.4065 11.9834 47.9729L7.2168 45.2395L24.1834 19.2896L28.7668 22.7896C29.4545 23.3306 29.6139 24.3081 29.1334 25.0395Z" fill="#F3FBF4"/>
<path d="M77.8671 49.2229V49.2063L83.3337 43.7397L71.8171 26.8822L65.0005 28.7397L58.23 25.8567C52.2175 24.7029 49.6478 26.0328 48.6738 26.866C48.4681 27.033 48.2921 27.2334 48.1531 27.4588C47.1712 28.2639 46.1097 28.9668 44.9851 29.5563C43.7978 30.1963 43.15 31.5215 43.374 32.8518C43.5982 34.1818 44.6445 35.2217 45.9761 35.4373C49.032 35.8475 52.14 35.2992 54.8711 33.8682L59.9095 37.0729L77.8671 49.2229Z" fill="#F3FBF4"/>
<path d="M1.66699 1.99902L24.1838 19.2891L7.21699 45.2391L1.66699 41.999V1.99902Z" fill="#F3FBF4"/>
<path d="M92.7834 45.2393L88.0168 47.9727C87.2528 48.4062 86.2834 48.173 85.8002 47.4393L83.3336 43.7393L71.8166 26.4725L70.8667 25.0391C70.3862 24.3076 70.5456 23.3301 71.2332 22.7891L75.8167 19.2891L92.7834 45.2393Z" fill="#F3FBF4"/>
<path d="M93.3342 45.3324L75.8174 19.2891L98.3342 1.99902V41.999L93.3342 45.3324Z" fill="#F3FBF4"/>
<path d="M98.334 1.99902V41.999L93.334 45.3324L93.084 44.949L93.334 43.6658V6.99902L98.334 1.99902Z" fill="#D6F3DA"/>
<path d="M11.9838 47.9727C12.7479 48.4061 13.7172 48.1729 14.2004 47.4393L14.7164 46.6725L12.217 45.2391L6.66699 41.999V5.83848L1.66699 1.99902V41.999L7.21699 45.2393L11.9838 47.9727Z" fill="#F3FBF4"/>
<path d="M48.6736 26.8656C48.5998 26.9308 48.5295 26.9998 48.4629 27.0722H53.3338L53.4027 27.1312C53.4877 27.0373 53.5781 26.9486 53.6738 26.8656C54.5283 26.1963 55.5434 25.7627 56.6176 25.6082C51.7658 24.9722 49.5541 26.1125 48.6736 26.8656Z" fill="#F3FBF4"/>
<path d="M3.3334 2.03564V23.7022V42.0356H0V23.7022V2.03564H3.3334Z" fill="#F3FBF4"/>
<path d="M1.66694 17.036C2.10815 17.0294 2.53062 16.8567 2.85034 16.5526C3.49487 15.8954 3.49487 14.8433 2.85034 14.186L2.60054 13.9858C2.50757 13.9226 2.40659 13.872 2.30015 13.8353C2.20562 13.7874 2.10444 13.7538 1.99995 13.736C1.88979 13.7173 1.77866 13.7062 1.66694 13.7026C1.22573 13.7089 0.803076 13.8813 0.483545 14.186C-0.145557 14.8495 -0.145557 15.8892 0.483545 16.5526C0.642725 16.703 0.829248 16.822 1.03296 16.9026C1.23354 16.988 1.44897 17.0335 1.66694 17.036Z" fill="#37C44D"/>
<path d="M99.0723 0.542453C98.5035 0.261984 97.8248 0.328195 97.3209 0.713352L70.2262 21.4311C68.8912 22.4618 68.5348 24.3264 69.3955 25.7768L65.1203 26.9423L58.8816 24.286C58.7729 24.2393 58.6594 24.2044 58.5432 24.1819C52.558 23.0384 49.4549 24.1413 47.8516 25.37H30.8184C31.4023 23.9718 30.973 22.3555 29.7723 21.4311L2.6791 0.713352C2.32832 0.444602 1.88496 0.326438 1.44687 0.384641C1.00879 0.442844 0.611914 0.672923 0.343555 1.02409C0.128516 1.31667 0.0175781 1.67292 0.028125 2.03581H0V8.70241C0 9.62292 0.746289 10.369 1.6666 10.369C2.58691 10.369 3.3332 9.62273 3.3332 8.70241V5.40847L21.9408 19.6374L6.67852 42.9805L3.3332 41.0694V22.036C3.3332 21.1155 2.58691 20.3694 1.6666 20.3694C0.746289 20.3694 0 21.1155 0 22.036V42.036H0.0259766C0.015625 42.6301 0.326953 43.1837 0.839844 43.4837L11.1557 49.3772C11.657 49.6645 12.225 49.8155 12.8027 49.8151C13.6506 49.8128 14.4658 49.4885 15.0836 48.9081L17.0172 50.4528C15.8924 51.8891 15.6467 53.8272 16.3773 55.4989C17.1082 57.1706 18.6977 58.3063 20.516 58.4559C20.6576 58.469 20.7977 58.4739 20.9375 58.4739C21.1937 58.4716 21.4496 58.4495 21.7025 58.4077C21.8066 59.5973 22.2762 60.7257 23.0469 61.638L23.0486 61.6397C24.0461 62.8233 25.4754 63.5589 27.0184 63.6823C27.1828 63.6969 27.3471 63.7034 27.5115 63.7034C27.5367 63.7034 27.5609 63.6973 27.5859 63.6969C27.6324 64.7803 28.0359 65.8178 28.7338 66.6477C29.683 67.7667 31.0768 68.411 32.5439 68.4089C33.1271 68.4079 33.7055 68.303 34.2518 68.0993C34.808 70.087 36.5457 71.5165 38.6035 71.6788C38.7451 71.6919 38.8852 71.6967 39.025 71.6967C40.1717 71.7036 41.2838 71.3034 42.1631 70.5673L44.7768 68.5479L50.9311 72.6604C51.8836 73.2932 53.002 73.6307 54.1455 73.6303C54.5379 73.6305 54.9293 73.5919 55.3141 73.5147C57.8213 73.0155 59.7066 70.9346 59.9574 68.3907C61.6256 68.8997 63.4348 68.6237 64.8752 67.6403C66.3156 66.6569 67.2316 65.0725 67.3652 63.3335C69.2957 63.9714 71.4191 63.5522 72.9623 62.2284C74.5055 60.9048 75.2428 58.8696 74.9061 56.8647C76.5762 56.6737 78.0785 55.7604 79.017 54.3659C79.9473 52.9637 80.2283 51.2284 79.7877 49.6044L83.0742 46.319L84.4158 48.3307C85.3887 49.7878 87.3225 50.2446 88.8445 49.3772L99.1603 43.4837C99.6799 43.1872 100 42.6348 100 42.0368V2.03679C100 1.40261 99.6404 0.823508 99.0723 0.542453ZM9.57734 44.6366L24.5955 21.6673L27.7475 24.0776L12.8092 46.4833L9.57734 44.6366ZM20.791 55.1339C20.1473 55.0796 19.5961 54.6508 19.3848 54.0403C19.1734 53.4298 19.342 52.7522 19.8145 52.3116L23.9828 49.0889C24.276 48.8391 24.649 48.7022 25.0342 48.7032C25.0797 48.7032 25.1252 48.7048 25.1709 48.7081C25.8148 48.7626 26.3664 49.1917 26.5775 49.8024C26.7889 50.4134 26.6201 51.0913 26.1475 51.5319L21.9791 54.7546C21.6525 55.0399 21.2225 55.1772 20.791 55.1339ZM27.2934 60.3602C26.2986 60.278 25.4479 59.6122 25.1291 58.6663C24.8104 57.7204 25.0846 56.6755 25.827 56.0081L31.076 51.9489C31.8477 51.295 32.9371 51.1706 33.8365 51.6333C34.7357 52.0962 35.2678 53.0551 35.1842 54.0632C35.1367 54.6801 34.8586 55.2567 34.4053 55.6782L32.977 56.7926L29.1148 59.7776C28.6103 60.2083 27.9541 60.4182 27.2934 60.3602ZM31.2793 64.4926C30.9979 64.1637 30.8607 63.7356 30.8984 63.3046C30.927 62.895 31.1131 62.5122 31.4176 62.2368L35.3137 59.196L36.4631 58.3077C36.4758 58.2969 36.4844 58.2833 36.4971 58.2723L37.674 57.354C37.9666 57.1038 38.3389 56.9663 38.7238 56.9667C38.7701 56.9665 38.8162 56.9686 38.8621 56.9731C39.5072 57.0276 40.0592 57.4577 40.2695 58.07C40.4799 58.6823 40.309 59.3608 39.8338 59.8003L35.9352 62.843L35.8055 62.9432L35.8018 62.9471L33.5773 64.6831C33.2475 64.9632 32.8199 65.1005 32.3887 65.0647C31.9578 65.029 31.5586 64.8231 31.2793 64.4926ZM40.0666 67.9774C39.7412 68.2647 39.3102 68.4022 38.8785 68.3567C38.2352 68.3024 37.6842 67.8741 37.4729 67.2641C37.2613 66.6542 37.4291 65.9768 37.9008 65.536L37.977 65.4766L42.0703 62.312C42.7477 61.7401 43.7574 61.8134 44.3453 62.4768C44.9332 63.1403 44.8842 64.1516 44.2352 64.7551L40.0666 67.9774ZM76.2418 52.52C75.4791 53.6491 73.9562 53.9665 72.8059 53.2362L72.7928 53.228L61.8471 45.663C61.3574 45.3225 60.7234 45.2698 60.1842 45.5247C59.6451 45.7794 59.2832 46.303 59.2354 46.8973C59.1875 47.4917 59.4609 48.0663 59.9523 48.404L70.5443 55.7262L70.5496 55.7315C71.3895 56.2889 71.8102 57.2979 71.6146 58.2868C71.4191 59.2757 70.6465 60.0489 69.6576 60.2448C69.017 60.378 68.3498 60.2503 67.8037 59.8899L56.85 52.3313C56.0922 51.81 55.0555 52.0008 54.533 52.7577C54.0106 53.5145 54.1994 54.5516 54.9555 55.0755L62.9557 60.595L62.9584 60.5979C64.1137 61.4093 64.4301 62.9841 63.6777 64.1786C62.9266 65.3173 61.3994 65.6401 60.2516 64.9028L57.3037 62.8108L57.3023 62.8098H57.3019L54.2979 60.6776C53.8123 60.3327 53.1797 60.2731 52.6383 60.5214C52.0969 60.7696 51.7289 61.2876 51.673 61.8803C51.6172 62.4733 51.8818 63.0508 52.3674 63.3958L55.4576 65.5882C55.6066 65.7087 55.748 65.838 55.8814 65.9755C56.8242 66.8694 56.9275 68.3354 56.1195 69.3526C55.3115 70.3698 53.86 70.601 52.776 69.8848L47.2863 66.2161C48.2182 64.7772 48.3363 62.9579 47.5986 61.4106C46.8609 59.8633 45.3732 58.8096 43.6688 58.6276C43.7072 56.0331 41.7236 53.8548 39.1367 53.6512C38.9229 53.6385 38.7082 53.6403 38.4945 53.6565C38.4412 51.605 37.3057 49.735 35.5102 48.7415C33.7146 47.7479 31.5271 47.779 29.7605 48.8233C29.2617 47.2557 28.0176 46.0376 26.4396 45.5721C24.8617 45.1067 23.1559 45.454 21.8857 46.4997L19.6096 48.2587L17.0139 46.1846L28.6689 28.7034H43.2982C42.033 29.8139 41.4426 31.5065 41.7426 33.163C42.0912 35.1735 43.6855 36.7364 45.7025 37.0448C48.7855 37.4811 51.9289 37.0282 54.7635 35.7395L59.0131 38.443C59.1082 38.4977 59.2088 38.5428 59.3129 38.5778L75.5609 49.0421C75.8818 49.2628 76.1516 49.5497 76.352 49.8835C76.3602 49.903 76.3699 49.921 76.3797 49.9405C76.8109 50.7604 76.7578 51.7507 76.2418 52.52ZM77.9475 46.7309C77.7705 46.5596 77.583 46.3997 77.3861 46.252L60.9033 35.6352C60.8275 35.5985 60.7488 35.568 60.6682 35.5438L55.765 32.4255C55.2426 32.0932 54.5789 32.0774 54.0414 32.3848C51.6447 33.6288 48.9242 34.1077 46.2469 33.7569C45.6223 33.6831 45.1229 33.203 45.0246 32.5817C44.9016 31.9311 45.2188 31.2766 45.8059 30.9704C47.0541 30.3202 48.227 29.5348 49.3035 28.6284C49.4189 28.5311 49.5137 28.4116 49.5818 28.2768C49.6346 28.211 49.6934 28.1507 49.7576 28.0962C50.2459 27.6778 52.2594 26.41 57.7426 27.4239L64.3475 30.2364C64.6916 30.386 65.0768 30.4124 65.4379 30.3112L71.3283 28.705L81.1885 43.4909L77.9475 46.7309ZM87.1908 46.4833L72.251 24.0794L75.4047 21.6677L90.4227 44.6368L87.1908 46.4833ZM96.6666 41.0698L93.3215 42.9809L78.0592 19.638L96.6666 5.40905V41.0698Z" fill="#37C44D"/>
</svg>
