<svg width="71" height="44" viewBox="0 0 71 44" fill="none" xmlns="http://www.w3.org/2000/svg">
<path d="M19.2028 38.2604V40.5537C19.2028 40.956 19.1345 41.3417 19.0085 41.7004C18.6659 42.678 17.8975 43.4526 16.928 43.7979C16.5721 43.9249 16.1896 43.9938 15.7906 43.9938H13.5158C13.1168 43.9938 12.7342 43.9249 12.3783 43.7979C11.4088 43.4526 10.6404 42.678 10.2978 41.7004C10.1719 41.3417 10.1035 40.956 10.1035 40.5537V38.2604C10.1035 37.8581 10.1719 37.4725 10.2978 37.1136C10.6404 36.1361 11.4088 35.3615 12.3783 35.0162C12.7342 34.8893 13.1168 34.8203 13.5158 34.8203H15.7906C16.1896 34.8203 16.5721 34.8893 16.928 35.0162C17.8975 35.3615 18.6659 36.1361 19.0085 37.1136C19.1345 37.4725 19.2028 37.8581 19.2028 38.2604ZM16.928 38.2604C16.928 37.627 16.4189 37.1136 15.7906 37.1136H13.5158C12.8875 37.1136 12.3783 37.627 12.3783 38.2604V40.5537C12.3783 41.1871 12.8875 41.7004 13.5158 41.7004H15.7906C16.4189 41.7004 16.928 41.1871 16.928 40.5537V38.2604Z" fill="white"/>
<path d="M29.3161 39.4071H27.0412V38.2604C27.0412 37.6271 26.5319 37.1136 25.9037 37.1136H24.7664C23.5101 37.1136 22.4916 38.1404 22.4916 39.407V42.8184C22.4916 43.4676 21.9696 43.9938 21.3256 43.9938H20.2168V35.9978C20.2168 35.3475 20.7397 34.8203 21.3848 34.8203H22.4916V35.4342C23.1609 35.0438 23.9378 34.8203 24.7664 34.8203H25.9039C26.3028 34.8203 26.6854 34.8893 27.0412 35.0162C28.0108 35.3615 28.7792 36.1361 29.1217 37.1136C29.2478 37.4725 29.3161 37.8581 29.3161 38.2604V39.4071Z" fill="white"/>
<path d="M32.601 40.5537C32.601 41.1871 33.1102 41.7004 33.7384 41.7004H38.183C38.8692 41.7004 39.4254 42.2612 39.4254 42.9529V43.9938H33.7384C33.3395 43.9938 32.9569 43.9249 32.601 43.7979C31.6314 43.4526 30.863 42.678 30.5205 41.7004C30.3946 41.3417 30.3262 40.9558 30.3262 40.5537V38.2604C30.3262 37.8581 30.3946 37.4725 30.5205 37.1136C30.863 36.1361 31.6314 35.3615 32.601 35.0162C32.9569 34.8893 33.3395 34.8203 33.7384 34.8203H36.0133C36.4122 34.8203 36.7947 34.8893 37.1507 35.0162C38.1203 35.3615 38.8886 36.1361 39.2311 37.1136C39.3573 37.4725 39.4254 37.8581 39.4254 38.2604V40.5537H32.601ZM32.601 38.2604H37.1507C37.1507 37.627 36.6416 37.1136 36.0133 37.1136H33.7384C33.1102 37.1136 32.601 37.627 32.601 38.2604Z" fill="white"/>
<path d="M57.3871 43.9934H55.1121C54.7133 43.9934 54.3308 43.9245 53.9748 43.7975C53.0052 43.4522 52.2369 42.6777 51.8944 41.7C51.7682 41.3413 51.7001 40.9556 51.7001 40.5533V37.1132H50.5625V34.8199H51.7001V32.6446C51.7001 31.9545 52.255 31.395 52.9395 31.395H53.9748V34.8199H56.2497V37.1132H53.9748V40.5533C53.9748 41.1866 54.484 41.7 55.1121 41.7H56.3393C56.9179 41.7 57.3871 42.1729 57.3871 42.7563V43.9934Z" fill="white"/>
<path d="M59.1694 31.3799H60.679V32.902C60.679 33.328 60.3365 33.6734 59.9139 33.6734H58.4043V32.1512C58.4043 31.7252 58.7468 31.3799 59.1694 31.3799Z" fill="#37C44D"/>
<path d="M59.5428 34.8203H60.679V42.8987C60.679 43.5035 60.1927 43.9938 59.5927 43.9938H58.4043V35.9681C58.4043 35.3342 58.914 34.8203 59.5428 34.8203Z" fill="white"/>
<path d="M69.6319 43.968H68.5062V38.2346C68.5062 37.6013 67.997 37.0879 67.3688 37.0879H63.9566V42.8638C63.9566 43.4736 63.4662 43.968 62.8613 43.968H61.6816V34.7944H67.3688C67.7677 34.7944 68.1502 34.8634 68.5062 34.9903C69.4758 35.3356 70.2441 36.1104 70.5866 37.0879C70.7127 37.4466 70.7809 37.8322 70.7809 38.2346V42.8096C70.7809 43.4493 70.2665 43.968 69.6319 43.968Z" fill="white"/>
<path d="M5.49777 44.0003H0V35.0282C0 33.0159 1.61306 31.3784 3.59578 31.3784H9.09365V34.8122H6.81874V33.6721H3.59578C2.86748 33.6721 2.27492 34.2804 2.27492 35.0282V41.7066H5.49777C6.22617 41.7066 6.81874 41.0983 6.81874 40.3505H9.09365C9.09365 42.3629 7.4806 44.0003 5.49777 44.0003Z" fill="white"/>
<path d="M48.4599 43.9748H47.2659V38.2414C47.2659 37.6081 46.7566 37.0948 46.1285 37.0948H42.7162V42.8426C42.7162 43.4679 42.2134 43.9748 41.5932 43.9748H40.4414V34.8013H46.1285C46.5274 34.8013 46.9099 34.8702 47.2659 34.9972C48.2354 35.3425 49.0037 36.1173 49.3462 37.0948C49.4724 37.4534 49.5406 37.8391 49.5406 38.2414V42.8853C49.5406 43.487 49.0567 43.9748 48.4599 43.9748Z" fill="white"/>
<path d="M38.6117 6.49244C39.0549 6.93715 39.7718 6.93715 40.2128 6.49244L41.0217 5.67702L35.3908 0L29.7598 5.67702L30.5687 6.49244C31.0118 6.93921 31.7266 6.93921 32.1698 6.49244L35.3908 3.24524L38.6117 6.49244Z" fill="white"/>
<path d="M34.2547 4.39096V12.2362L31.4476 15.0662C31.3514 15.0515 31.2511 15.041 31.1508 15.041C30.066 15.041 29.1902 15.9429 29.2215 17.0429C29.2487 18.0586 30.0889 18.9035 31.0964 18.933C32.1875 18.9626 33.0821 18.0796 33.0821 16.986C33.0821 16.8849 33.0716 16.7858 33.0549 16.6868L34.2547 15.4792V28.7466H35.3897C36.0188 28.7466 36.5288 28.2324 36.5288 27.5981V11.2226L37.7056 12.4112C37.691 12.5081 37.6805 12.6071 37.6805 12.7104C37.6805 13.804 38.5751 14.6849 39.6662 14.6554C40.6737 14.628 41.5139 13.7809 41.5411 12.7651C41.5704 11.6652 40.6967 10.7632 39.6119 10.7632C39.5094 10.7632 39.4112 10.7738 39.315 10.7885L36.5288 7.97956V4.39096L35.3918 3.24463L34.2547 4.39096Z" fill="#37C44D"/>
<path d="M34.2542 19.431V22.674L30.4814 26.4777L19.8047 15.7138L27.02 8.44167C27.4673 7.9908 28.1926 7.9908 28.6399 8.44167L29.4384 9.24671L23.0236 15.7138L30.4814 23.2324L34.2542 19.431Z" fill="white"/>
<path d="M50.9768 15.7138L40.3001 26.4777L36.5273 22.674V19.431L40.3001 23.2324L47.7579 15.7138L41.3432 9.24671L42.1416 8.44167C42.5889 7.9908 43.3142 7.9908 43.7615 8.44167L50.9747 15.7138H50.9768Z" fill="white"/>
</svg>
