<svg width="248" height="65" viewBox="0 0 248 65" fill="none" xmlns="http://www.w3.org/2000/svg">
<g clip-path="url(#clip0_627_3)">
<path d="M129.114 33.7936V38.9789C129.114 39.8886 128.958 40.7605 128.669 41.5715C127.885 43.7822 126.127 45.5336 123.908 46.3144C123.093 46.6015 122.218 46.7573 121.304 46.7573H116.098C115.185 46.7573 114.309 46.6015 113.495 46.3144C111.275 45.5336 109.517 43.7822 108.733 41.5715C108.445 40.7605 108.288 39.8886 108.288 38.9789V33.7936C108.288 32.8839 108.445 32.0119 108.733 31.2005C109.517 28.9903 111.275 27.2389 113.495 26.4581C114.309 26.171 115.185 26.0151 116.098 26.0151H121.304C122.218 26.0151 123.093 26.171 123.908 26.4581C126.127 27.2389 127.885 28.9903 128.669 31.2005C128.958 32.0119 129.114 32.8839 129.114 33.7936ZM123.908 33.7936C123.908 32.3614 122.742 31.2005 121.304 31.2005H116.098C114.66 31.2005 113.495 32.3614 113.495 33.7936V38.9789C113.495 40.4111 114.66 41.5715 116.098 41.5715H121.304C122.742 41.5715 123.908 40.4111 123.908 38.9789V33.7936Z" fill="white"/>
<path d="M152.254 36.3862H147.047V33.7936C147.047 32.3614 145.882 31.2005 144.444 31.2005H141.841C138.965 31.2005 136.634 33.5221 136.634 36.386V44.0994C136.634 45.5673 135.439 46.7573 133.966 46.7573H131.428V28.6776C131.428 27.2072 132.625 26.0151 134.101 26.0151H136.634V27.4031C138.166 26.5205 139.944 26.0151 141.841 26.0151H144.444C145.357 26.0151 146.233 26.171 147.047 26.4581C149.266 27.2389 151.025 28.9903 151.809 31.2005C152.097 32.0119 152.254 32.8839 152.254 33.7936V36.3862Z" fill="white"/>
<path d="M159.774 38.9789C159.774 40.4111 160.939 41.5715 162.377 41.5715H172.55C174.12 41.5715 175.393 42.8396 175.393 44.4037V46.7573H162.377C161.464 46.7573 160.588 46.6015 159.774 46.3144C157.555 45.5336 155.796 43.7822 155.012 41.5715C154.724 40.7605 154.567 39.8881 154.567 38.9789V33.7936C154.567 32.8839 154.724 32.0119 155.012 31.2005C155.796 28.9903 157.555 27.2389 159.774 26.4581C160.588 26.171 161.464 26.0151 162.377 26.0151H167.584C168.497 26.0151 169.372 26.171 170.187 26.4581C172.406 27.2389 174.165 28.9903 174.949 31.2005C175.237 32.0119 175.393 32.8839 175.393 33.7936V38.9789H159.774ZM159.774 33.7936H170.187C170.187 32.3614 169.022 31.2005 167.584 31.2005H162.377C160.939 31.2005 159.774 32.3614 159.774 33.7936Z" fill="white"/>
<path d="M216.502 46.7572H211.295C210.382 46.7572 209.506 46.6013 208.692 46.3142C206.473 45.5335 204.714 43.7821 203.93 41.5714C203.641 40.7604 203.485 39.8884 203.485 38.9788V31.2003H200.882V26.015H203.485V21.0964C203.485 19.536 204.756 18.271 206.322 18.271H208.692V26.015H213.898V31.2003H208.692V38.9788C208.692 40.4106 209.857 41.5714 211.295 41.5714H214.103C215.428 41.5714 216.502 42.6408 216.502 43.9599V46.7572Z" fill="white"/>
<path d="M220.589 18.2368H224.044V21.6785C224.044 22.6418 223.26 23.4226 222.293 23.4226H218.838V19.9809C218.838 19.0177 219.622 18.2368 220.589 18.2368Z" fill="#37C44D"/>
<path d="M221.444 26.0151H224.044V44.2811C224.044 45.6487 222.931 46.7573 221.558 46.7573H218.838V28.6103C218.838 27.177 220.004 26.0151 221.444 26.0151Z" fill="white"/>
<path d="M244.531 46.6978H241.955V33.734C241.955 32.3021 240.789 31.1413 239.352 31.1413H231.542V44.2011C231.542 45.58 230.419 46.6978 229.035 46.6978H226.335V25.9556H239.352C240.264 25.9556 241.14 26.1114 241.955 26.3985C244.174 27.1793 245.932 28.9312 246.716 31.1413C247.005 31.9524 247.161 32.8243 247.161 33.734V44.0786C247.161 45.5251 245.984 46.6978 244.531 46.6978Z" fill="white"/>
<path d="M97.7422 46.7697H85.1592V26.483C85.1592 21.9329 88.8511 18.2305 93.389 18.2305H105.972V25.9945H100.766V23.4167H93.389C91.7221 23.4167 90.3659 24.7921 90.3659 26.483V41.5835H97.7422C99.4094 41.5835 100.766 40.208 100.766 38.5171H105.972C105.972 43.0673 102.28 46.7697 97.7422 46.7697Z" fill="white"/>
<path d="M196.072 46.7148H193.339V33.7511C193.339 32.3192 192.174 31.1584 190.736 31.1584H182.926V44.1548C182.926 45.5687 181.775 46.7148 180.356 46.7148H177.72V25.9727H190.736C191.649 25.9727 192.524 26.1285 193.339 26.4156C195.558 27.1964 197.317 28.9483 198.101 31.1584C198.389 31.9695 198.546 32.8414 198.546 33.7511V44.2515C198.546 45.6119 197.438 46.7148 196.072 46.7148Z" fill="white"/>
<path d="M43.0462 14.68C44.0603 15.6855 45.7012 15.6855 46.7106 14.68L48.562 12.8363L35.6741 0L22.7861 12.8363L24.6375 14.68C25.6518 15.6902 27.2878 15.6902 28.3021 14.68L35.6741 7.33779L43.0462 14.68Z" fill="white"/>
<path d="M33.0714 9.92985V27.6688L26.6466 34.0676C26.4265 34.0343 26.1969 34.0106 25.9672 34.0106C23.4844 34.0106 21.4799 36.0498 21.5517 38.537C21.6139 40.8335 23.537 42.744 25.8429 42.8108C28.3401 42.8776 30.3876 40.8812 30.3876 38.4084C30.3876 38.1797 30.3637 37.9556 30.3254 37.7318L33.0714 35.0014V65.0001H35.6691C37.109 65.0001 38.2763 63.8375 38.2763 62.4033V25.3769L40.9697 28.0643C40.9362 28.2834 40.9123 28.5072 40.9123 28.7408C40.9123 31.2137 42.9598 33.2054 45.457 33.1386C47.7629 33.0767 49.686 31.1613 49.7482 28.8646C49.8152 26.3776 47.8155 24.3381 45.3326 24.3381C45.0982 24.3381 44.8734 24.3621 44.6533 24.3954L38.2763 18.044V9.92985L35.6738 7.33789L33.0714 9.92985Z" fill="#37C44D"/>
<path d="M33.0714 43.9351V51.2681L24.4364 59.8684L0 35.5304L16.5142 19.0874C17.5379 18.0679 19.1979 18.0679 20.2217 19.0874L22.0492 20.9076L7.36728 35.5304L24.4364 52.5306L33.0714 43.9351Z" fill="white"/>
<path d="M71.3477 35.5304L46.9114 59.8684L38.2764 51.2681V43.9351L46.9114 52.5306L63.9805 35.5304L49.2986 20.9076L51.126 19.0874C52.1498 18.0679 53.8098 18.0679 54.8336 19.0874L71.3429 35.5304H71.3477Z" fill="white"/>
</g>
<defs>
<clipPath id="clip0_627_3">
<rect width="247.16" height="65" fill="white"/>
</clipPath>
</defs>
</svg>
