<svg width="188" height="65" viewBox="0 0 188 65" fill="none" xmlns="http://www.w3.org/2000/svg">
<path d="M50.81 18.0612V24.0779C50.81 25.1341 50.6275 26.1461 50.2957 27.0862C49.3888 29.6522 47.3592 31.6872 44.7933 32.5886C43.8532 32.9204 42.8412 33.1029 41.7849 33.1029H35.7682C34.712 33.1029 33.7 32.9204 32.7599 32.5886C30.1939 31.6817 28.1644 29.6522 27.2575 27.0862C26.9257 26.1461 26.7432 25.1341 26.7432 24.0779V18.0612C26.7432 17.0049 26.9257 15.9929 27.2575 15.0528C28.1644 12.4869 30.1939 10.4574 32.7599 9.55043C33.7 9.21862 34.712 9.03613 35.7682 9.03613H41.7849C42.8412 9.03613 43.8532 9.21862 44.7933 9.55043C47.3592 10.4574 49.3888 12.4869 50.2957 15.0528C50.6275 15.9929 50.81 17.0049 50.81 18.0612ZM44.7933 18.0612C44.7933 16.3966 43.4439 15.0528 41.7849 15.0528H35.7682C34.1037 15.0528 32.7599 16.4022 32.7599 18.0612V24.0779C32.7599 25.7424 34.1092 27.0862 35.7682 27.0862H41.7849C43.4495 27.0862 44.7933 25.7369 44.7933 24.0779V18.0612Z" fill="white"/>
<path d="M77.56 21.0692H71.5433V18.0609C71.5433 16.3963 70.1939 15.0525 68.5349 15.0525H65.5266C62.203 15.0525 59.5098 17.7456 59.5098 21.0692V30.0224C59.5098 31.7256 58.1273 33.1081 56.4241 33.1081H53.4932V12.1216C53.4932 10.4128 54.8757 9.03027 56.5845 9.03027H59.5154V10.6395C61.285 9.61646 63.3422 9.03027 65.5321 9.03027H68.5404C69.5967 9.03027 70.6087 9.21277 71.5488 9.54457C74.1147 10.4515 76.1443 12.481 77.0512 15.047C77.383 15.9871 77.5655 16.9991 77.5655 18.0553V21.0637L77.56 21.0692Z" fill="white"/>
<path d="M86.2517 24.0832C86.2517 25.7478 87.6011 27.0916 89.2601 27.0916H101.017C102.831 27.0916 104.302 28.5626 104.302 30.3765V33.1083H89.2545C88.1983 33.1083 87.1863 32.9258 86.2462 32.594C83.6802 31.6871 81.6507 29.6575 80.7438 27.0916C80.412 26.1515 80.2295 25.1395 80.2295 24.0832V18.0666C80.2295 17.0103 80.412 15.9983 80.7438 15.0582C81.6507 12.4923 83.6802 10.4627 86.2462 9.5558C87.1863 9.224 88.1983 9.0415 89.2545 9.0415H95.2712C96.3275 9.0415 97.3395 9.224 98.2796 9.5558C100.846 10.4627 102.875 12.4923 103.782 15.0582C104.114 15.9983 104.296 17.0103 104.296 18.0666V24.0832H86.2407H86.2517ZM86.2517 18.0666H98.2907C98.2907 16.402 96.9413 15.0582 95.2823 15.0582H89.2656C87.6011 15.0582 86.2573 16.4075 86.2573 18.0666H86.2517Z" fill="white"/>
<path d="M151.827 33.108H145.811C144.755 33.108 143.743 32.9255 142.802 32.5937C140.236 31.6868 138.207 29.6572 137.3 27.0913C136.968 26.1512 136.786 25.1392 136.786 24.0829V15.0524H133.777V9.03565H136.786V3.32864C136.786 1.52031 138.251 0.0493164 140.065 0.0493164H142.802V9.03565H148.819V15.0524H142.802V24.0829C142.802 25.7475 144.152 27.0913 145.811 27.0913H149.057C150.589 27.0913 151.827 28.33 151.827 29.8618V33.108Z" fill="white"/>
<path d="M156.55 0.00585938H160.543V3.99856C160.543 5.11563 159.636 6.02256 158.519 6.02256H154.526V2.02986C154.526 0.912788 155.433 0.00585938 156.55 0.00585938Z" fill="white"/>
<path d="M157.54 9.03613H160.549V30.2384C160.549 31.8255 159.26 33.114 157.673 33.114H154.526V12.05C154.526 10.3855 155.876 9.03613 157.54 9.03613Z" fill="white"/>
<path d="M184.228 33.0421H181.247V17.9948C181.247 16.3302 179.898 14.9864 178.239 14.9864H169.208V30.1443C169.208 31.7425 167.909 33.0421 166.31 33.0421H163.191V8.96973H178.239C179.295 8.96973 180.307 9.15221 181.247 9.48402C183.813 10.3909 185.842 12.426 186.749 14.9864C187.081 15.9265 187.264 16.9385 187.264 17.9948V30.0005C187.264 31.6817 185.903 33.0421 184.222 33.0421H184.228Z" fill="white"/>
<path d="M14.544 33.125H0V9.57806C0 4.29685 4.2692 0 9.51169 0H24.0557V9.00846H18.039V6.0167H9.51169C7.58723 6.0167 6.0167 7.61489 6.0167 9.57806V27.1028H14.544C16.4685 27.1028 18.039 25.5046 18.039 23.5414H24.0557C24.0557 28.8226 19.7865 33.1195 14.544 33.1195V33.125Z" fill="white"/>
<path d="M128.208 33.0582H125.051V18.0109C125.051 16.3463 123.701 15.0025 122.042 15.0025H113.012V30.0885C113.012 31.7309 111.679 33.0582 110.042 33.0582H106.995V8.98584H122.042C123.099 8.98584 124.111 9.16833 125.051 9.50014C127.617 10.4071 129.646 12.4421 130.553 15.0025C130.885 15.9426 131.067 16.9546 131.067 18.0109V30.1991C131.067 31.7807 129.79 33.0582 128.208 33.0582Z" fill="white"/>
<path d="M58.292 57.7396C58.292 58.5857 58.1483 59.4042 57.8773 60.1563C57.1473 62.219 55.516 63.8503 53.4532 64.5803C52.6956 64.8458 51.8827 64.9951 51.0366 64.9951H46.1978C45.3517 64.9951 44.5333 64.8513 43.7812 64.5803C41.7185 63.8503 40.0871 62.219 39.3571 60.1563C39.0917 59.3987 38.9424 58.5857 38.9424 57.7396V55.323H41.359C42.6918 55.323 43.7756 56.4069 43.7756 57.7396C43.7756 57.7396 43.7756 57.7839 43.7756 57.8005C43.8088 59.1056 44.8761 60.1563 46.1923 60.1563H51.0311C52.3638 60.1563 53.4477 59.0724 53.4477 57.7396V40.7513C53.4477 39.4517 54.504 38.3955 55.8035 38.3955H58.2865V57.7396H58.292Z" fill="white"/>
<path d="M144.273 52.9053V57.7441C144.273 58.5902 144.13 59.4031 143.859 60.1608C143.129 62.2235 141.497 63.8548 139.435 64.5848C138.677 64.8502 137.864 64.9996 137.018 64.9996H132.179C131.333 64.9996 130.515 64.8558 129.763 64.5848C127.7 63.8548 126.069 62.2235 125.339 60.1608C125.073 59.4031 124.924 58.5902 124.924 57.7441V52.9053C124.924 52.0592 125.068 51.2408 125.339 50.4887C126.069 48.426 127.7 46.7946 129.763 46.0647C130.52 45.7992 131.333 45.6499 132.179 45.6499H137.018C137.864 45.6499 138.677 45.7937 139.435 46.0647C141.497 46.7946 143.129 48.426 143.859 50.4887C144.124 51.2463 144.273 52.0592 144.273 52.9053ZM139.435 52.9053C139.435 51.5671 138.351 50.4887 137.018 50.4887H132.179C130.841 50.4887 129.763 51.5726 129.763 52.9053V57.7441C129.763 59.0824 130.847 60.1608 132.179 60.1608H137.018C138.356 60.1608 139.435 59.0769 139.435 57.7441V52.9053Z" fill="white"/>
<path d="M187.263 64.845V64.9944H183.984C182.402 64.9944 180.926 64.2257 180.019 62.9317L178.078 60.1611L177.973 60.0118C177.785 59.7463 177.397 59.7463 177.209 60.0118L177.104 60.1611L175.169 62.9261C174.256 64.2257 172.774 64.9999 171.187 64.9999H167.919V64.8506L171.204 60.1611L172.758 57.9435L174.455 55.5214C174.566 55.361 174.566 55.1453 174.455 54.985L172.758 52.5628L171.309 50.4946L167.924 45.6558H171.353C172.907 45.6558 174.361 46.4134 175.252 47.6853L177.221 50.4946C177.409 50.76 177.801 50.76 177.984 50.4946L179.952 47.6853C180.843 46.4134 182.297 45.6558 183.851 45.6558H187.28L183.895 50.4946L182.446 52.5628L180.749 54.985C180.638 55.1453 180.638 55.361 180.749 55.5214L182.446 57.9435L184 60.1611L187.285 64.8506L187.263 64.845Z" fill="white"/>
<path d="M65.2825 57.7388C65.2825 59.077 66.3664 60.1554 67.6991 60.1554H77.15C78.6099 60.1554 79.7934 61.3388 79.7934 62.7988V64.9942H67.7046C66.8585 64.9942 66.0456 64.8504 65.288 64.5794C63.2253 63.8495 61.5939 62.2181 60.864 60.1554C60.5985 59.3978 60.4492 58.5849 60.4492 57.7388V52.9C60.4492 52.0539 60.593 51.2409 60.864 50.4833C61.5939 48.4206 63.2253 46.7893 65.288 46.0593C66.0456 45.7938 66.8585 45.6445 67.7046 45.6445H72.5434C73.3895 45.6445 74.2025 45.7883 74.9601 46.0593C77.0228 46.7893 78.6542 48.4206 79.3841 50.4833C79.6496 51.2409 79.7989 52.0539 79.7989 52.9V57.7388H65.288H65.2825ZM65.2825 52.9H74.9546C74.9546 51.5617 73.8707 50.4833 72.5379 50.4833H67.6991C66.3609 50.4833 65.2825 51.5672 65.2825 52.9Z" fill="white"/>
<path d="M148.725 45.6501H151.263V57.7388C151.263 59.0715 152.347 60.1554 153.68 60.1554H160.935V48.0335C160.935 46.7174 162.002 45.6445 163.324 45.6445H165.774V64.9887H153.685C152.839 64.9887 152.026 64.8449 151.268 64.5739C149.206 63.8439 147.574 62.2126 146.844 60.1499C146.579 59.3923 146.43 58.5793 146.43 57.7332V47.9395C146.43 46.6731 147.458 45.6445 148.725 45.6445V45.6501Z" fill="white"/>
<path d="M122.778 52.9057V62.6995C122.778 63.9658 121.749 64.9944 120.483 64.9944H117.944V52.9002C117.944 51.5619 116.861 50.4836 115.528 50.4836H108.272V62.5999C108.272 63.9216 107.205 64.9889 105.883 64.9889H103.434V40.8392C103.434 39.5009 104.517 38.417 105.85 38.417H108.267V45.6392H115.522C116.368 45.6392 117.187 45.7886 117.939 46.054C120.002 46.784 121.633 48.4153 122.363 50.478C122.634 51.2357 122.778 52.0486 122.778 52.8947V52.9057Z" fill="white"/>
<path d="M93.9719 64.9781H81.9551V52.9613C81.9551 48.9354 85.2289 45.6616 89.2492 45.6616H101.272V52.9005H96.4328V50.4949H89.2492C87.8943 50.4949 86.7939 51.6009 86.7939 52.9558V60.1393H93.9719C95.3157 60.1393 96.4162 59.0499 96.4328 57.7061L101.272 57.7614C101.227 61.7375 97.9535 64.9726 93.9719 64.9726V64.9781Z" fill="white"/>
</svg>
